ISO-10303-21;
HEADER;
/* Generated by software containing ST-Developer
 * from STEP Tools, Inc. (www.steptools.com) 
 */
/* OPTION: using custom renumber hook */

FILE_DESCRIPTION(
/* description */ ('STEP AP242 Edition 2',
'CAx-IF Rec.Pracs.---Representation and Presentation of Product Manufa
cturing Information (PMI)---4.0---2014-10-13',
'CAx-IF Rec.Pracs.---3D Tessellated Geometry---0.4---2014-09-14','2;1',
'CAx-IF Rec.Pracs.---User Defined Attributes---1.5---2016-08-15'),
/* implementation_level */ '2;1');

FILE_NAME(
/* name */ 'tilt-pulley-mount2 - tilt-pulley-mount2',
/* time_stamp */ '2026-05-06T02:33:35Z',
/* author */ (''),
/* organization */ (''),
/* preprocessor_version */ 'ST-DEVELOPER v20',
/* originating_system */ 'ONSHAPE BY PTC INC, 1.214',
/* authorisation */ '  ');

FILE_SCHEMA (('AP242_MANAGED_MODEL_BASED_3D_ENGINEERING_MIM_LF { 1 0 10303 442 3 1 4 }'));
ENDSEC;

DATA;
#10=SHAPE_REPRESENTATION_RELATIONSHIP('','',#794,#11);
#11=ADVANCED_BREP_SHAPE_REPRESENTATION('',(#792),#1359);
#12=CYLINDRICAL_SURFACE('',#854,0.002);
#13=CYLINDRICAL_SURFACE('',#855,0.002);
#14=CYLINDRICAL_SURFACE('',#856,0.002);
#15=CYLINDRICAL_SURFACE('',#857,0.002);
#16=CYLINDRICAL_SURFACE('',#858,0.002);
#17=CYLINDRICAL_SURFACE('',#859,0.002);
#18=CYLINDRICAL_SURFACE('',#860,0.002);
#19=CYLINDRICAL_SURFACE('',#861,0.002);
#20=CYLINDRICAL_SURFACE('',#862,0.0022);
#21=CYLINDRICAL_SURFACE('',#863,0.0022);
#22=CYLINDRICAL_SURFACE('',#864,0.0022);
#23=CYLINDRICAL_SURFACE('',#865,0.0022);
#24=CYLINDRICAL_SURFACE('',#866,0.00227564204560769);
#25=CYLINDRICAL_SURFACE('',#867,0.00225055235954208);
#26=CYLINDRICAL_SURFACE('',#871,0.00348282011870942);
#27=CYLINDRICAL_SURFACE('',#872,0.01);
#28=CYLINDRICAL_SURFACE('',#875,0.00387303565580724);
#29=CYLINDRICAL_SURFACE('',#878,0.00334001088815165);
#30=CYLINDRICAL_SURFACE('',#883,0.00363885484076138);
#31=CYLINDRICAL_SURFACE('',#886,0.00320848345486264);
#32=CYLINDRICAL_SURFACE('',#887,0.00367869824125867);
#33=CYLINDRICAL_SURFACE('',#890,0.0140372490195961);
#34=CIRCLE('',#805,0.0022);
#35=CIRCLE('',#806,0.00225055235954208);
#36=CIRCLE('',#808,0.0022);
#37=CIRCLE('',#809,0.00227564204560769);
#38=CIRCLE('',#811,0.0140372490195961);
#39=CIRCLE('',#812,0.002);
#40=CIRCLE('',#813,0.002);
#41=CIRCLE('',#814,0.0022);
#42=CIRCLE('',#816,0.0140372490195961);
#43=CIRCLE('',#817,0.002);
#44=CIRCLE('',#818,0.002);
#45=CIRCLE('',#819,0.0022);
#46=CIRCLE('',#821,0.0140372490195961);
#47=CIRCLE('',#822,0.002);
#48=CIRCLE('',#823,0.002);
#49=CIRCLE('',#824,0.00225055235954208);
#50=CIRCLE('',#826,0.0140372490195961);
#51=CIRCLE('',#827,0.002);
#52=CIRCLE('',#828,0.002);
#53=CIRCLE('',#829,0.00227564204560769);
#54=CIRCLE('',#835,0.0140372490195961);
#55=CIRCLE('',#836,0.002);
#56=CIRCLE('',#837,0.002);
#57=CIRCLE('',#838,0.0140372490195961);
#58=CIRCLE('',#839,0.002);
#59=CIRCLE('',#840,0.002);
#60=CIRCLE('',#841,0.0140372490195961);
#61=CIRCLE('',#842,0.002);
#62=CIRCLE('',#843,0.002);
#63=CIRCLE('',#844,0.0140372490195961);
#64=CIRCLE('',#845,0.002);
#65=CIRCLE('',#846,0.002);
#66=CIRCLE('',#847,0.00367869824125867);
#67=CIRCLE('',#848,0.00320848345486264);
#68=CIRCLE('',#849,0.00348282011870942);
#69=CIRCLE('',#850,0.0022);
#70=CIRCLE('',#851,0.0022);
#71=CIRCLE('',#852,0.0022);
#72=CIRCLE('',#853,0.0022);
#73=CIRCLE('',#869,0.00348282011870942);
#74=CIRCLE('',#870,0.00363885484076138);
#75=CIRCLE('',#873,0.01);
#76=CIRCLE('',#874,0.01);
#77=CIRCLE('',#876,0.00387303565580724);
#78=CIRCLE('',#877,0.00387303565580724);
#79=CIRCLE('',#879,0.00334001088815165);
#80=CIRCLE('',#880,0.00334001088815165);
#81=CIRCLE('',#882,0.00363885484076138);
#82=CIRCLE('',#885,0.00320848345486264);
#83=CIRCLE('',#888,0.00367869824125867);
#84=CIRCLE('',#891,0.0140372490195961);
#85=ORIENTED_EDGE('',*,*,#283,.F.);
#86=ORIENTED_EDGE('',*,*,#284,.F.);
#87=ORIENTED_EDGE('',*,*,#285,.T.);
#88=ORIENTED_EDGE('',*,*,#286,.T.);
#89=ORIENTED_EDGE('',*,*,#287,.T.);
#90=ORIENTED_EDGE('',*,*,#288,.T.);
#91=ORIENTED_EDGE('',*,*,#289,.F.);
#92=ORIENTED_EDGE('',*,*,#290,.T.);
#93=ORIENTED_EDGE('',*,*,#291,.F.);
#94=ORIENTED_EDGE('',*,*,#292,.F.);
#95=ORIENTED_EDGE('',*,*,#293,.T.);
#96=ORIENTED_EDGE('',*,*,#294,.T.);
#97=ORIENTED_EDGE('',*,*,#295,.T.);
#98=ORIENTED_EDGE('',*,*,#296,.T.);
#99=ORIENTED_EDGE('',*,*,#297,.F.);
#100=ORIENTED_EDGE('',*,*,#298,.T.);
#101=ORIENTED_EDGE('',*,*,#299,.F.);
#102=ORIENTED_EDGE('',*,*,#300,.T.);
#103=ORIENTED_EDGE('',*,*,#301,.T.);
#104=ORIENTED_EDGE('',*,*,#302,.T.);
#105=ORIENTED_EDGE('',*,*,#303,.F.);
#106=ORIENTED_EDGE('',*,*,#304,.T.);
#107=ORIENTED_EDGE('',*,*,#305,.T.);
#108=ORIENTED_EDGE('',*,*,#306,.F.);
#109=ORIENTED_EDGE('',*,*,#307,.F.);
#110=ORIENTED_EDGE('',*,*,#308,.T.);
#111=ORIENTED_EDGE('',*,*,#309,.T.);
#112=ORIENTED_EDGE('',*,*,#310,.T.);
#113=ORIENTED_EDGE('',*,*,#311,.F.);
#114=ORIENTED_EDGE('',*,*,#312,.T.);
#115=ORIENTED_EDGE('',*,*,#313,.T.);
#116=ORIENTED_EDGE('',*,*,#314,.F.);
#117=ORIENTED_EDGE('',*,*,#315,.T.);
#118=ORIENTED_EDGE('',*,*,#316,.F.);
#119=ORIENTED_EDGE('',*,*,#317,.T.);
#120=ORIENTED_EDGE('',*,*,#318,.F.);
#121=ORIENTED_EDGE('',*,*,#319,.F.);
#122=ORIENTED_EDGE('',*,*,#287,.F.);
#123=ORIENTED_EDGE('',*,*,#320,.T.);
#124=ORIENTED_EDGE('',*,*,#321,.T.);
#125=ORIENTED_EDGE('',*,*,#322,.T.);
#126=ORIENTED_EDGE('',*,*,#284,.T.);
#127=ORIENTED_EDGE('',*,*,#323,.F.);
#128=ORIENTED_EDGE('',*,*,#324,.F.);
#129=ORIENTED_EDGE('',*,*,#295,.F.);
#130=ORIENTED_EDGE('',*,*,#325,.T.);
#131=ORIENTED_EDGE('',*,*,#326,.F.);
#132=ORIENTED_EDGE('',*,*,#327,.T.);
#133=ORIENTED_EDGE('',*,*,#292,.T.);
#134=ORIENTED_EDGE('',*,*,#328,.F.);
#135=ORIENTED_EDGE('',*,*,#329,.F.);
#136=ORIENTED_EDGE('',*,*,#306,.T.);
#137=ORIENTED_EDGE('',*,*,#330,.T.);
#138=ORIENTED_EDGE('',*,*,#331,.F.);
#139=ORIENTED_EDGE('',*,*,#332,.T.);
#140=ORIENTED_EDGE('',*,*,#301,.F.);
#141=ORIENTED_EDGE('',*,*,#333,.T.);
#142=ORIENTED_EDGE('',*,*,#334,.F.);
#143=ORIENTED_EDGE('',*,*,#314,.T.);
#144=ORIENTED_EDGE('',*,*,#335,.T.);
#145=ORIENTED_EDGE('',*,*,#336,.T.);
#146=ORIENTED_EDGE('',*,*,#337,.T.);
#147=ORIENTED_EDGE('',*,*,#309,.F.);
#148=ORIENTED_EDGE('',*,*,#338,.T.);
#149=ORIENTED_EDGE('',*,*,#339,.T.);
#150=ORIENTED_EDGE('',*,*,#340,.T.);
#151=ORIENTED_EDGE('',*,*,#321,.F.);
#152=ORIENTED_EDGE('',*,*,#341,.T.);
#153=ORIENTED_EDGE('',*,*,#326,.T.);
#154=ORIENTED_EDGE('',*,*,#342,.T.);
#155=ORIENTED_EDGE('',*,*,#343,.F.);
#156=ORIENTED_EDGE('',*,*,#344,.T.);
#157=ORIENTED_EDGE('',*,*,#345,.F.);
#158=ORIENTED_EDGE('',*,*,#346,.T.);
#159=ORIENTED_EDGE('',*,*,#331,.T.);
#160=ORIENTED_EDGE('',*,*,#347,.T.);
#161=ORIENTED_EDGE('',*,*,#348,.T.);
#162=ORIENTED_EDGE('',*,*,#349,.T.);
#163=ORIENTED_EDGE('',*,*,#336,.F.);
#164=ORIENTED_EDGE('',*,*,#350,.T.);
#165=ORIENTED_EDGE('',*,*,#351,.F.);
#166=ORIENTED_EDGE('',*,*,#299,.T.);
#167=ORIENTED_EDGE('',*,*,#352,.T.);
#168=ORIENTED_EDGE('',*,*,#345,.T.);
#169=ORIENTED_EDGE('',*,*,#353,.T.);
#170=ORIENTED_EDGE('',*,*,#304,.F.);
#171=ORIENTED_EDGE('',*,*,#354,.F.);
#172=ORIENTED_EDGE('',*,*,#307,.T.);
#173=ORIENTED_EDGE('',*,*,#355,.T.);
#174=ORIENTED_EDGE('',*,*,#348,.F.);
#175=ORIENTED_EDGE('',*,*,#356,.T.);
#176=ORIENTED_EDGE('',*,*,#312,.F.);
#177=ORIENTED_EDGE('',*,*,#357,.F.);
#178=ORIENTED_EDGE('',*,*,#286,.F.);
#179=ORIENTED_EDGE('',*,*,#358,.T.);
#180=ORIENTED_EDGE('',*,*,#339,.F.);
#181=ORIENTED_EDGE('',*,*,#359,.T.);
#182=ORIENTED_EDGE('',*,*,#289,.T.);
#183=ORIENTED_EDGE('',*,*,#360,.F.);
#184=ORIENTED_EDGE('',*,*,#294,.F.);
#185=ORIENTED_EDGE('',*,*,#361,.T.);
#186=ORIENTED_EDGE('',*,*,#343,.T.);
#187=ORIENTED_EDGE('',*,*,#362,.T.);
#188=ORIENTED_EDGE('',*,*,#297,.T.);
#189=ORIENTED_EDGE('',*,*,#363,.T.);
#190=ORIENTED_EDGE('',*,*,#364,.T.);
#191=ORIENTED_EDGE('',*,*,#365,.T.);
#192=ORIENTED_EDGE('',*,*,#366,.T.);
#193=ORIENTED_EDGE('',*,*,#367,.T.);
#194=ORIENTED_EDGE('',*,*,#368,.T.);
#195=ORIENTED_EDGE('',*,*,#369,.T.);
#196=ORIENTED_EDGE('',*,*,#362,.F.);
#197=ORIENTED_EDGE('',*,*,#342,.F.);
#198=ORIENTED_EDGE('',*,*,#325,.F.);
#199=ORIENTED_EDGE('',*,*,#298,.F.);
#200=ORIENTED_EDGE('',*,*,#352,.F.);
#201=ORIENTED_EDGE('',*,*,#302,.F.);
#202=ORIENTED_EDGE('',*,*,#332,.F.);
#203=ORIENTED_EDGE('',*,*,#346,.F.);
#204=ORIENTED_EDGE('',*,*,#353,.F.);
#205=ORIENTED_EDGE('',*,*,#347,.F.);
#206=ORIENTED_EDGE('',*,*,#330,.F.);
#207=ORIENTED_EDGE('',*,*,#305,.F.);
#208=ORIENTED_EDGE('',*,*,#355,.F.);
#209=ORIENTED_EDGE('',*,*,#310,.F.);
#210=ORIENTED_EDGE('',*,*,#337,.F.);
#211=ORIENTED_EDGE('',*,*,#349,.F.);
#212=ORIENTED_EDGE('',*,*,#356,.F.);
#213=ORIENTED_EDGE('',*,*,#350,.F.);
#214=ORIENTED_EDGE('',*,*,#335,.F.);
#215=ORIENTED_EDGE('',*,*,#313,.F.);
#216=ORIENTED_EDGE('',*,*,#358,.F.);
#217=ORIENTED_EDGE('',*,*,#285,.F.);
#218=ORIENTED_EDGE('',*,*,#322,.F.);
#219=ORIENTED_EDGE('',*,*,#340,.F.);
#220=ORIENTED_EDGE('',*,*,#359,.F.);
#221=ORIENTED_EDGE('',*,*,#341,.F.);
#222=ORIENTED_EDGE('',*,*,#320,.F.);
#223=ORIENTED_EDGE('',*,*,#290,.F.);
#224=ORIENTED_EDGE('',*,*,#361,.F.);
#225=ORIENTED_EDGE('',*,*,#293,.F.);
#226=ORIENTED_EDGE('',*,*,#327,.F.);
#227=ORIENTED_EDGE('',*,*,#344,.F.);
#228=ORIENTED_EDGE('',*,*,#315,.F.);
#229=ORIENTED_EDGE('',*,*,#366,.F.);
#230=ORIENTED_EDGE('',*,*,#317,.F.);
#231=ORIENTED_EDGE('',*,*,#367,.F.);
#232=ORIENTED_EDGE('',*,*,#369,.F.);
#233=ORIENTED_EDGE('',*,*,#328,.T.);
#234=ORIENTED_EDGE('',*,*,#368,.F.);
#235=ORIENTED_EDGE('',*,*,#323,.T.);
#236=ORIENTED_EDGE('',*,*,#318,.T.);
#237=ORIENTED_EDGE('',*,*,#338,.F.);
#238=ORIENTED_EDGE('',*,*,#333,.F.);
#239=ORIENTED_EDGE('',*,*,#316,.T.);
#240=ORIENTED_EDGE('',*,*,#370,.F.);
#241=ORIENTED_EDGE('',*,*,#371,.F.);
#242=ORIENTED_EDGE('',*,*,#370,.T.);
#243=ORIENTED_EDGE('',*,*,#365,.F.);
#244=ORIENTED_EDGE('',*,*,#372,.F.);
#245=ORIENTED_EDGE('',*,*,#373,.T.);
#246=ORIENTED_EDGE('',*,*,#374,.T.);
#247=ORIENTED_EDGE('',*,*,#375,.T.);
#248=ORIENTED_EDGE('',*,*,#376,.T.);
#249=ORIENTED_EDGE('',*,*,#377,.T.);
#250=ORIENTED_EDGE('',*,*,#378,.F.);
#251=ORIENTED_EDGE('',*,*,#377,.F.);
#252=ORIENTED_EDGE('',*,*,#375,.F.);
#253=ORIENTED_EDGE('',*,*,#373,.F.);
#254=ORIENTED_EDGE('',*,*,#371,.T.);
#255=ORIENTED_EDGE('',*,*,#378,.T.);
#256=ORIENTED_EDGE('',*,*,#379,.F.);
#257=ORIENTED_EDGE('',*,*,#376,.F.);
#258=ORIENTED_EDGE('',*,*,#379,.T.);
#259=ORIENTED_EDGE('',*,*,#364,.F.);
#260=ORIENTED_EDGE('',*,*,#380,.T.);
#261=ORIENTED_EDGE('',*,*,#363,.F.);
#262=ORIENTED_EDGE('',*,*,#380,.F.);
#263=ORIENTED_EDGE('',*,*,#374,.F.);
#264=ORIENTED_EDGE('',*,*,#381,.F.);
#265=ORIENTED_EDGE('',*,*,#319,.T.);
#266=ORIENTED_EDGE('',*,*,#283,.T.);
#267=ORIENTED_EDGE('',*,*,#357,.T.);
#268=ORIENTED_EDGE('',*,*,#311,.T.);
#269=ORIENTED_EDGE('',*,*,#334,.T.);
#270=ORIENTED_EDGE('',*,*,#308,.F.);
#271=ORIENTED_EDGE('',*,*,#354,.T.);
#272=ORIENTED_EDGE('',*,*,#303,.T.);
#273=ORIENTED_EDGE('',*,*,#329,.T.);
#274=ORIENTED_EDGE('',*,*,#300,.F.);
#275=ORIENTED_EDGE('',*,*,#351,.T.);
#276=ORIENTED_EDGE('',*,*,#296,.F.);
#277=ORIENTED_EDGE('',*,*,#324,.T.);
#278=ORIENTED_EDGE('',*,*,#291,.T.);
#279=ORIENTED_EDGE('',*,*,#360,.T.);
#280=ORIENTED_EDGE('',*,*,#288,.F.);
#281=ORIENTED_EDGE('',*,*,#372,.T.);
#282=ORIENTED_EDGE('',*,*,#381,.T.);
#283=EDGE_CURVE('',#382,#383,#457,.F.);
#284=EDGE_CURVE('',#384,#382,#458,.T.);
#285=EDGE_CURVE('',#384,#385,#459,.T.);
#286=EDGE_CURVE('',#385,#383,#460,.T.);
#287=EDGE_CURVE('',#386,#387,#461,.T.);
#288=EDGE_CURVE('',#387,#388,#462,.F.);
#289=EDGE_CURVE('',#389,#388,#463,.T.);
#290=EDGE_CURVE('',#389,#386,#464,.T.);
#291=EDGE_CURVE('',#390,#391,#465,.F.);
#292=EDGE_CURVE('',#392,#390,#466,.T.);
#293=EDGE_CURVE('',#392,#393,#467,.T.);
#294=EDGE_CURVE('',#393,#391,#468,.T.);
#295=EDGE_CURVE('',#394,#395,#469,.T.);
#296=EDGE_CURVE('',#395,#396,#470,.F.);
#297=EDGE_CURVE('',#397,#396,#471,.T.);
#298=EDGE_CURVE('',#397,#394,#472,.T.);
#299=EDGE_CURVE('',#398,#399,#473,.T.);
#300=EDGE_CURVE('',#398,#400,#474,.T.);
#301=EDGE_CURVE('',#400,#401,#475,.T.);
#302=EDGE_CURVE('',#401,#399,#476,.T.);
#303=EDGE_CURVE('',#402,#403,#477,.T.);
#304=EDGE_CURVE('',#402,#404,#478,.T.);
#305=EDGE_CURVE('',#404,#405,#479,.T.);
#306=EDGE_CURVE('',#403,#405,#480,.T.);
#307=EDGE_CURVE('',#406,#407,#481,.T.);
#308=EDGE_CURVE('',#406,#408,#482,.T.);
#309=EDGE_CURVE('',#408,#409,#483,.T.);
#310=EDGE_CURVE('',#409,#407,#484,.T.);
#311=EDGE_CURVE('',#410,#411,#485,.T.);
#312=EDGE_CURVE('',#410,#412,#486,.T.);
#313=EDGE_CURVE('',#412,#413,#487,.T.);
#314=EDGE_CURVE('',#411,#413,#488,.T.);
#315=EDGE_CURVE('',#414,#414,#34,.T.);
#316=EDGE_CURVE('',#415,#415,#35,.T.);
#317=EDGE_CURVE('',#416,#416,#36,.T.);
#318=EDGE_CURVE('',#417,#417,#37,.T.);
#319=EDGE_CURVE('',#387,#382,#38,.T.);
#320=EDGE_CURVE('',#386,#418,#39,.T.);
#321=EDGE_CURVE('',#418,#419,#489,.T.);
#322=EDGE_CURVE('',#419,#384,#40,.T.);
#323=EDGE_CURVE('',#420,#420,#41,.F.);
#324=EDGE_CURVE('',#395,#390,#42,.T.);
#325=EDGE_CURVE('',#394,#421,#43,.T.);
#326=EDGE_CURVE('',#422,#421,#490,.T.);
#327=EDGE_CURVE('',#422,#392,#44,.T.);
#328=EDGE_CURVE('',#423,#423,#45,.F.);
#329=EDGE_CURVE('',#403,#400,#46,.T.);
#330=EDGE_CURVE('',#405,#424,#47,.T.);
#331=EDGE_CURVE('',#425,#424,#491,.T.);
#332=EDGE_CURVE('',#425,#401,#48,.T.);
#333=EDGE_CURVE('',#426,#426,#49,.T.);
#334=EDGE_CURVE('',#411,#408,#50,.T.);
#335=EDGE_CURVE('',#413,#427,#51,.T.);
#336=EDGE_CURVE('',#427,#428,#492,.T.);
#337=EDGE_CURVE('',#428,#409,#52,.T.);
#338=EDGE_CURVE('',#429,#429,#53,.T.);
#339=EDGE_CURVE('',#430,#431,#493,.T.);
#340=EDGE_CURVE('',#431,#419,#494,.T.);
#341=EDGE_CURVE('',#418,#430,#495,.T.);
#342=EDGE_CURVE('',#421,#432,#496,.T.);
#343=EDGE_CURVE('',#433,#432,#497,.T.);
#344=EDGE_CURVE('',#433,#422,#498,.T.);
#345=EDGE_CURVE('',#434,#435,#499,.T.);
#346=EDGE_CURVE('',#434,#425,#500,.T.);
#347=EDGE_CURVE('',#424,#435,#501,.T.);
#348=EDGE_CURVE('',#436,#437,#502,.T.);
#349=EDGE_CURVE('',#437,#428,#503,.T.);
#350=EDGE_CURVE('',#427,#436,#504,.T.);
#351=EDGE_CURVE('',#398,#396,#54,.F.);
#352=EDGE_CURVE('',#399,#434,#55,.T.);
#353=EDGE_CURVE('',#435,#404,#56,.T.);
#354=EDGE_CURVE('',#406,#402,#57,.F.);
#355=EDGE_CURVE('',#407,#437,#58,.T.);
#356=EDGE_CURVE('',#436,#412,#59,.T.);
#357=EDGE_CURVE('',#383,#410,#60,.F.);
#358=EDGE_CURVE('',#385,#431,#61,.T.);
#359=EDGE_CURVE('',#430,#389,#62,.T.);
#360=EDGE_CURVE('',#391,#388,#63,.F.);
#361=EDGE_CURVE('',#393,#433,#64,.T.);
#362=EDGE_CURVE('',#432,#397,#65,.T.);
#363=EDGE_CURVE('',#438,#438,#66,.F.);
#364=EDGE_CURVE('',#439,#439,#67,.F.);
#365=EDGE_CURVE('',#440,#440,#68,.F.);
#366=EDGE_CURVE('',#441,#441,#69,.T.);
#367=EDGE_CURVE('',#442,#442,#70,.T.);
#368=EDGE_CURVE('',#443,#443,#71,.T.);
#369=EDGE_CURVE('',#444,#444,#72,.T.);
#370=EDGE_CURVE('',#445,#445,#73,.T.);
#371=EDGE_CURVE('',#446,#446,#74,.F.);
#372=EDGE_CURVE('',#447,#447,#75,.F.);
#373=EDGE_CURVE('',#448,#448,#76,.T.);
#374=EDGE_CURVE('',#449,#449,#77,.F.);
#375=EDGE_CURVE('',#450,#450,#78,.T.);
#376=EDGE_CURVE('',#451,#451,#79,.F.);
#377=EDGE_CURVE('',#452,#452,#80,.T.);
#378=EDGE_CURVE('',#453,#453,#81,.T.);
#379=EDGE_CURVE('',#454,#454,#82,.T.);
#380=EDGE_CURVE('',#455,#455,#83,.T.);
#381=EDGE_CURVE('',#456,#456,#84,.T.);
#382=VERTEX_POINT('',#1140);
#383=VERTEX_POINT('',#1141);
#384=VERTEX_POINT('',#1143);
#385=VERTEX_POINT('',#1145);
#386=VERTEX_POINT('',#1149);
#387=VERTEX_POINT('',#1150);
#388=VERTEX_POINT('',#1152);
#389=VERTEX_POINT('',#1154);
#390=VERTEX_POINT('',#1158);
#391=VERTEX_POINT('',#1159);
#392=VERTEX_POINT('',#1161);
#393=VERTEX_POINT('',#1163);
#394=VERTEX_POINT('',#1167);
#395=VERTEX_POINT('',#1168);
#396=VERTEX_POINT('',#1170);
#397=VERTEX_POINT('',#1172);
#398=VERTEX_POINT('',#1176);
#399=VERTEX_POINT('',#1177);
#400=VERTEX_POINT('',#1179);
#401=VERTEX_POINT('',#1181);
#402=VERTEX_POINT('',#1185);
#403=VERTEX_POINT('',#1186);
#404=VERTEX_POINT('',#1188);
#405=VERTEX_POINT('',#1190);
#406=VERTEX_POINT('',#1194);
#407=VERTEX_POINT('',#1195);
#408=VERTEX_POINT('',#1197);
#409=VERTEX_POINT('',#1199);
#410=VERTEX_POINT('',#1203);
#411=VERTEX_POINT('',#1204);
#412=VERTEX_POINT('',#1206);
#413=VERTEX_POINT('',#1208);
#414=VERTEX_POINT('',#1212);
#415=VERTEX_POINT('',#1214);
#416=VERTEX_POINT('',#1217);
#417=VERTEX_POINT('',#1219);
#418=VERTEX_POINT('',#1223);
#419=VERTEX_POINT('',#1225);
#420=VERTEX_POINT('',#1228);
#421=VERTEX_POINT('',#1232);
#422=VERTEX_POINT('',#1234);
#423=VERTEX_POINT('',#1237);
#424=VERTEX_POINT('',#1241);
#425=VERTEX_POINT('',#1243);
#426=VERTEX_POINT('',#1246);
#427=VERTEX_POINT('',#1250);
#428=VERTEX_POINT('',#1252);
#429=VERTEX_POINT('',#1255);
#430=VERTEX_POINT('',#1258);
#431=VERTEX_POINT('',#1259);
#432=VERTEX_POINT('',#1264);
#433=VERTEX_POINT('',#1266);
#434=VERTEX_POINT('',#1270);
#435=VERTEX_POINT('',#1271);
#436=VERTEX_POINT('',#1276);
#437=VERTEX_POINT('',#1277);
#438=VERTEX_POINT('',#1294);
#439=VERTEX_POINT('',#1296);
#440=VERTEX_POINT('',#1298);
#441=VERTEX_POINT('',#1300);
#442=VERTEX_POINT('',#1302);
#443=VERTEX_POINT('',#1304);
#444=VERTEX_POINT('',#1306);
#445=VERTEX_POINT('',#1323);
#446=VERTEX_POINT('',#1325);
#447=VERTEX_POINT('',#1329);
#448=VERTEX_POINT('',#1331);
#449=VERTEX_POINT('',#1334);
#450=VERTEX_POINT('',#1336);
#451=VERTEX_POINT('',#1339);
#452=VERTEX_POINT('',#1341);
#453=VERTEX_POINT('',#1344);
#454=VERTEX_POINT('',#1348);
#455=VERTEX_POINT('',#1352);
#456=VERTEX_POINT('',#1356);
#457=LINE('',#1139,#505);
#458=LINE('',#1142,#506);
#459=LINE('',#1144,#507);
#460=LINE('',#1146,#508);
#461=LINE('',#1148,#509);
#462=LINE('',#1151,#510);
#463=LINE('',#1153,#511);
#464=LINE('',#1155,#512);
#465=LINE('',#1157,#513);
#466=LINE('',#1160,#514);
#467=LINE('',#1162,#515);
#468=LINE('',#1164,#516);
#469=LINE('',#1166,#517);
#470=LINE('',#1169,#518);
#471=LINE('',#1171,#519);
#472=LINE('',#1173,#520);
#473=LINE('',#1175,#521);
#474=LINE('',#1178,#522);
#475=LINE('',#1180,#523);
#476=LINE('',#1182,#524);
#477=LINE('',#1184,#525);
#478=LINE('',#1187,#526);
#479=LINE('',#1189,#527);
#480=LINE('',#1191,#528);
#481=LINE('',#1193,#529);
#482=LINE('',#1196,#530);
#483=LINE('',#1198,#531);
#484=LINE('',#1200,#532);
#485=LINE('',#1202,#533);
#486=LINE('',#1205,#534);
#487=LINE('',#1207,#535);
#488=LINE('',#1209,#536);
#489=LINE('',#1224,#537);
#490=LINE('',#1233,#538);
#491=LINE('',#1242,#539);
#492=LINE('',#1251,#540);
#493=LINE('',#1257,#541);
#494=LINE('',#1260,#542);
#495=LINE('',#1261,#543);
#496=LINE('',#1263,#544);
#497=LINE('',#1265,#545);
#498=LINE('',#1267,#546);
#499=LINE('',#1269,#547);
#500=LINE('',#1272,#548);
#501=LINE('',#1273,#549);
#502=LINE('',#1275,#550);
#503=LINE('',#1278,#551);
#504=LINE('',#1279,#552);
#505=VECTOR('',#897,1.);
#506=VECTOR('',#898,1.);
#507=VECTOR('',#899,1.);
#508=VECTOR('',#900,1.);
#509=VECTOR('',#903,1.);
#510=VECTOR('',#904,1.);
#511=VECTOR('',#905,1.);
#512=VECTOR('',#906,1.);
#513=VECTOR('',#909,1.);
#514=VECTOR('',#910,1.);
#515=VECTOR('',#911,1.);
#516=VECTOR('',#912,1.);
#517=VECTOR('',#915,1.);
#518=VECTOR('',#916,1.);
#519=VECTOR('',#917,1.);
#520=VECTOR('',#918,1.);
#521=VECTOR('',#921,1.);
#522=VECTOR('',#922,1.);
#523=VECTOR('',#923,1.);
#524=VECTOR('',#924,1.);
#525=VECTOR('',#927,1.);
#526=VECTOR('',#928,1.);
#527=VECTOR('',#929,1.);
#528=VECTOR('',#930,1.);
#529=VECTOR('',#933,1.);
#530=VECTOR('',#934,1.);
#531=VECTOR('',#935,1.);
#532=VECTOR('',#936,1.);
#533=VECTOR('',#939,1.);
#534=VECTOR('',#940,1.);
#535=VECTOR('',#941,1.);
#536=VECTOR('',#942,1.);
#537=VECTOR('',#961,1.);
#538=VECTOR('',#972,1.);
#539=VECTOR('',#983,1.);
#540=VECTOR('',#994,1.);
#541=VECTOR('',#1001,1.);
#542=VECTOR('',#1002,1.);
#543=VECTOR('',#1003,1.);
#544=VECTOR('',#1006,1.);
#545=VECTOR('',#1007,1.);
#546=VECTOR('',#1008,1.);
#547=VECTOR('',#1011,1.);
#548=VECTOR('',#1012,1.);
#549=VECTOR('',#1013,1.);
#550=VECTOR('',#1016,1.);
#551=VECTOR('',#1017,1.);
#552=VECTOR('',#1018,1.);
#553=EDGE_LOOP('',(#85,#86,#87,#88));
#554=EDGE_LOOP('',(#89,#90,#91,#92));
#555=EDGE_LOOP('',(#93,#94,#95,#96));
#556=EDGE_LOOP('',(#97,#98,#99,#100));
#557=EDGE_LOOP('',(#101,#102,#103,#104));
#558=EDGE_LOOP('',(#105,#106,#107,#108));
#559=EDGE_LOOP('',(#109,#110,#111,#112));
#560=EDGE_LOOP('',(#113,#114,#115,#116));
#561=EDGE_LOOP('',(#117));
#562=EDGE_LOOP('',(#118));
#563=EDGE_LOOP('',(#119));
#564=EDGE_LOOP('',(#120));
#565=EDGE_LOOP('',(#121,#122,#123,#124,#125,#126));
#566=EDGE_LOOP('',(#127));
#567=EDGE_LOOP('',(#128,#129,#130,#131,#132,#133));
#568=EDGE_LOOP('',(#134));
#569=EDGE_LOOP('',(#135,#136,#137,#138,#139,#140));
#570=EDGE_LOOP('',(#141));
#571=EDGE_LOOP('',(#142,#143,#144,#145,#146,#147));
#572=EDGE_LOOP('',(#148));
#573=EDGE_LOOP('',(#149,#150,#151,#152));
#574=EDGE_LOOP('',(#153,#154,#155,#156));
#575=EDGE_LOOP('',(#157,#158,#159,#160));
#576=EDGE_LOOP('',(#161,#162,#163,#164));
#577=EDGE_LOOP('',(#165,#166,#167,#168,#169,#170,#171,#172,#173,#174,#175,
#176,#177,#178,#179,#180,#181,#182,#183,#184,#185,#186,#187,#188));
#578=EDGE_LOOP('',(#189));
#579=EDGE_LOOP('',(#190));
#580=EDGE_LOOP('',(#191));
#581=EDGE_LOOP('',(#192));
#582=EDGE_LOOP('',(#193));
#583=EDGE_LOOP('',(#194));
#584=EDGE_LOOP('',(#195));
#585=EDGE_LOOP('',(#196,#197,#198,#199));
#586=EDGE_LOOP('',(#200,#201,#202,#203));
#587=EDGE_LOOP('',(#204,#205,#206,#207));
#588=EDGE_LOOP('',(#208,#209,#210,#211));
#589=EDGE_LOOP('',(#212,#213,#214,#215));
#590=EDGE_LOOP('',(#216,#217,#218,#219));
#591=EDGE_LOOP('',(#220,#221,#222,#223));
#592=EDGE_LOOP('',(#224,#225,#226,#227));
#593=EDGE_LOOP('',(#228));
#594=EDGE_LOOP('',(#229));
#595=EDGE_LOOP('',(#230));
#596=EDGE_LOOP('',(#231));
#597=EDGE_LOOP('',(#232));
#598=EDGE_LOOP('',(#233));
#599=EDGE_LOOP('',(#234));
#600=EDGE_LOOP('',(#235));
#601=EDGE_LOOP('',(#236));
#602=EDGE_LOOP('',(#237));
#603=EDGE_LOOP('',(#238));
#604=EDGE_LOOP('',(#239));
#605=EDGE_LOOP('',(#240));
#606=EDGE_LOOP('',(#241));
#607=EDGE_LOOP('',(#242));
#608=EDGE_LOOP('',(#243));
#609=EDGE_LOOP('',(#244));
#610=EDGE_LOOP('',(#245));
#611=EDGE_LOOP('',(#246));
#612=EDGE_LOOP('',(#247));
#613=EDGE_LOOP('',(#248));
#614=EDGE_LOOP('',(#249));
#615=EDGE_LOOP('',(#250));
#616=EDGE_LOOP('',(#251));
#617=EDGE_LOOP('',(#252));
#618=EDGE_LOOP('',(#253));
#619=EDGE_LOOP('',(#254));
#620=EDGE_LOOP('',(#255));
#621=EDGE_LOOP('',(#256));
#622=EDGE_LOOP('',(#257));
#623=EDGE_LOOP('',(#258));
#624=EDGE_LOOP('',(#259));
#625=EDGE_LOOP('',(#260));
#626=EDGE_LOOP('',(#261));
#627=EDGE_LOOP('',(#262));
#628=EDGE_LOOP('',(#263));
#629=EDGE_LOOP('',(#264));
#630=EDGE_LOOP('',(#265,#266,#267,#268,#269,#270,#271,#272,#273,#274,#275,
#276,#277,#278,#279,#280));
#631=EDGE_LOOP('',(#281));
#632=EDGE_LOOP('',(#282));
#633=FACE_BOUND('',#553,.T.);
#634=FACE_BOUND('',#554,.T.);
#635=FACE_BOUND('',#555,.T.);
#636=FACE_BOUND('',#556,.T.);
#637=FACE_BOUND('',#557,.T.);
#638=FACE_BOUND('',#558,.T.);
#639=FACE_BOUND('',#559,.T.);
#640=FACE_BOUND('',#560,.T.);
#641=FACE_BOUND('',#561,.T.);
#642=FACE_BOUND('',#562,.T.);
#643=FACE_BOUND('',#563,.T.);
#644=FACE_BOUND('',#564,.T.);
#645=FACE_BOUND('',#565,.T.);
#646=FACE_BOUND('',#566,.T.);
#647=FACE_BOUND('',#567,.T.);
#648=FACE_BOUND('',#568,.T.);
#649=FACE_BOUND('',#569,.T.);
#650=FACE_BOUND('',#570,.T.);
#651=FACE_BOUND('',#571,.T.);
#652=FACE_BOUND('',#572,.T.);
#653=FACE_BOUND('',#573,.T.);
#654=FACE_BOUND('',#574,.T.);
#655=FACE_BOUND('',#575,.T.);
#656=FACE_BOUND('',#576,.T.);
#657=FACE_BOUND('',#577,.T.);
#658=FACE_BOUND('',#578,.T.);
#659=FACE_BOUND('',#579,.T.);
#660=FACE_BOUND('',#580,.T.);
#661=FACE_BOUND('',#581,.T.);
#662=FACE_BOUND('',#582,.T.);
#663=FACE_BOUND('',#583,.T.);
#664=FACE_BOUND('',#584,.T.);
#665=FACE_BOUND('',#585,.T.);
#666=FACE_BOUND('',#586,.T.);
#667=FACE_BOUND('',#587,.T.);
#668=FACE_BOUND('',#588,.T.);
#669=FACE_BOUND('',#589,.T.);
#670=FACE_BOUND('',#590,.T.);
#671=FACE_BOUND('',#591,.T.);
#672=FACE_BOUND('',#592,.T.);
#673=FACE_BOUND('',#593,.T.);
#674=FACE_BOUND('',#594,.T.);
#675=FACE_BOUND('',#595,.T.);
#676=FACE_BOUND('',#596,.T.);
#677=FACE_BOUND('',#597,.T.);
#678=FACE_BOUND('',#598,.T.);
#679=FACE_BOUND('',#599,.T.);
#680=FACE_BOUND('',#600,.T.);
#681=FACE_BOUND('',#601,.T.);
#682=FACE_BOUND('',#602,.T.);
#683=FACE_BOUND('',#603,.T.);
#684=FACE_BOUND('',#604,.T.);
#685=FACE_BOUND('',#605,.T.);
#686=FACE_BOUND('',#606,.T.);
#687=FACE_BOUND('',#607,.T.);
#688=FACE_BOUND('',#608,.T.);
#689=FACE_BOUND('',#609,.T.);
#690=FACE_BOUND('',#610,.T.);
#691=FACE_BOUND('',#611,.T.);
#692=FACE_BOUND('',#612,.T.);
#693=FACE_BOUND('',#613,.T.);
#694=FACE_BOUND('',#614,.T.);
#695=FACE_BOUND('',#615,.T.);
#696=FACE_BOUND('',#616,.T.);
#697=FACE_BOUND('',#617,.T.);
#698=FACE_BOUND('',#618,.T.);
#699=FACE_BOUND('',#619,.T.);
#700=FACE_BOUND('',#620,.T.);
#701=FACE_BOUND('',#621,.T.);
#702=FACE_BOUND('',#622,.T.);
#703=FACE_BOUND('',#623,.T.);
#704=FACE_BOUND('',#624,.T.);
#705=FACE_BOUND('',#625,.T.);
#706=FACE_BOUND('',#626,.T.);
#707=FACE_BOUND('',#627,.T.);
#708=FACE_BOUND('',#628,.T.);
#709=FACE_BOUND('',#629,.T.);
#710=FACE_BOUND('',#630,.T.);
#711=FACE_BOUND('',#631,.T.);
#712=FACE_BOUND('',#632,.T.);
#713=PLANE('',#796);
#714=PLANE('',#797);
#715=PLANE('',#798);
#716=PLANE('',#799);
#717=PLANE('',#800);
#718=PLANE('',#801);
#719=PLANE('',#802);
#720=PLANE('',#803);
#721=PLANE('',#804);
#722=PLANE('',#807);
#723=PLANE('',#810);
#724=PLANE('',#815);
#725=PLANE('',#820);
#726=PLANE('',#825);
#727=PLANE('',#830);
#728=PLANE('',#831);
#729=PLANE('',#832);
#730=PLANE('',#833);
#731=PLANE('',#834);
#732=PLANE('',#868);
#733=PLANE('',#881);
#734=PLANE('',#884);
#735=PLANE('',#889);
#736=PLANE('',#892);
#737=ADVANCED_FACE('',(#633),#713,.T.);
#738=ADVANCED_FACE('',(#634),#714,.F.);
#739=ADVANCED_FACE('',(#635),#715,.T.);
#740=ADVANCED_FACE('',(#636),#716,.F.);
#741=ADVANCED_FACE('',(#637),#717,.F.);
#742=ADVANCED_FACE('',(#638),#718,.T.);
#743=ADVANCED_FACE('',(#639),#719,.F.);
#744=ADVANCED_FACE('',(#640),#720,.T.);
#745=ADVANCED_FACE('',(#641,#642),#721,.F.);
#746=ADVANCED_FACE('',(#643,#644),#722,.F.);
#747=ADVANCED_FACE('',(#645,#646),#723,.F.);
#748=ADVANCED_FACE('',(#647,#648),#724,.F.);
#749=ADVANCED_FACE('',(#649,#650),#725,.F.);
#750=ADVANCED_FACE('',(#651,#652),#726,.F.);
#751=ADVANCED_FACE('',(#653),#727,.T.);
#752=ADVANCED_FACE('',(#654),#728,.F.);
#753=ADVANCED_FACE('',(#655),#729,.F.);
#754=ADVANCED_FACE('',(#656),#730,.T.);
#755=ADVANCED_FACE('',(#657,#658,#659,#660,#661,#662,#663,#664),#731,.T.);
#756=ADVANCED_FACE('',(#665),#12,.T.);
#757=ADVANCED_FACE('',(#666),#13,.T.);
#758=ADVANCED_FACE('',(#667),#14,.T.);
#759=ADVANCED_FACE('',(#668),#15,.T.);
#760=ADVANCED_FACE('',(#669),#16,.T.);
#761=ADVANCED_FACE('',(#670),#17,.T.);
#762=ADVANCED_FACE('',(#671),#18,.T.);
#763=ADVANCED_FACE('',(#672),#19,.T.);
#764=ADVANCED_FACE('',(#673,#674),#20,.F.);
#765=ADVANCED_FACE('',(#675,#676),#21,.F.);
#766=ADVANCED_FACE('',(#677,#678),#22,.F.);
#767=ADVANCED_FACE('',(#679,#680),#23,.F.);
#768=ADVANCED_FACE('',(#681,#682),#24,.F.);
#769=ADVANCED_FACE('',(#683,#684),#25,.F.);
#770=ADVANCED_FACE('',(#685,#686),#732,.T.);
#771=ADVANCED_FACE('',(#687,#688),#26,.F.);
#772=ADVANCED_FACE('',(#689,#690),#27,.T.);
#773=ADVANCED_FACE('',(#691,#692),#28,.F.);
#774=ADVANCED_FACE('',(#693,#694),#29,.F.);
#775=ADVANCED_FACE('',(#695,#696,#697,#698),#733,.F.);
#776=ADVANCED_FACE('',(#699,#700),#30,.F.);
#777=ADVANCED_FACE('',(#701,#702),#734,.T.);
#778=ADVANCED_FACE('',(#703,#704),#31,.F.);
#779=ADVANCED_FACE('',(#705,#706),#32,.F.);
#780=ADVANCED_FACE('',(#707,#708),#735,.T.);
#781=ADVANCED_FACE('',(#709,#710),#33,.T.);
#782=ADVANCED_FACE('',(#711,#712),#736,.T.);
#783=CLOSED_SHELL('',(#737,#738,#739,#740,#741,#742,#743,#744,#745,#746,
#747,#748,#749,#750,#751,#752,#753,#754,#755,#756,#757,#758,#759,#760,#761,
#762,#763,#764,#765,#766,#767,#768,#769,#770,#771,#772,#773,#774,#775,#776,
#777,#778,#779,#780,#781,#782));
#784=STYLED_ITEM('',(#785),#792);
#785=PRESENTATION_STYLE_ASSIGNMENT((#786));
#786=SURFACE_STYLE_USAGE(.BOTH.,#787);
#787=SURFACE_SIDE_STYLE('',(#788));
#788=SURFACE_STYLE_FILL_AREA(#789);
#789=FILL_AREA_STYLE('',(#790));
#790=FILL_AREA_STYLE_COLOUR('',#791);
#791=COLOUR_RGB('',0.792156862745098,0.819607843137255,0.933333333333333);
#792=MANIFOLD_SOLID_BREP('tilt-pulley-mount2',#783);
#793=SHAPE_DEFINITION_REPRESENTATION(#1364,#794);
#794=SHAPE_REPRESENTATION('tilt-pulley-mount2',(#795),#1359);
#795=AXIS2_PLACEMENT_3D('',#1137,#893,#894);
#796=AXIS2_PLACEMENT_3D('',#1138,#895,#896);
#797=AXIS2_PLACEMENT_3D('',#1147,#901,#902);
#798=AXIS2_PLACEMENT_3D('',#1156,#907,#908);
#799=AXIS2_PLACEMENT_3D('',#1165,#913,#914);
#800=AXIS2_PLACEMENT_3D('',#1174,#919,#920);
#801=AXIS2_PLACEMENT_3D('',#1183,#925,#926);
#802=AXIS2_PLACEMENT_3D('',#1192,#931,#932);
#803=AXIS2_PLACEMENT_3D('',#1201,#937,#938);
#804=AXIS2_PLACEMENT_3D('',#1210,#943,#944);
#805=AXIS2_PLACEMENT_3D('',#1211,#945,#946);
#806=AXIS2_PLACEMENT_3D('',#1213,#947,#948);
#807=AXIS2_PLACEMENT_3D('',#1215,#949,#950);
#808=AXIS2_PLACEMENT_3D('',#1216,#951,#952);
#809=AXIS2_PLACEMENT_3D('',#1218,#953,#954);
#810=AXIS2_PLACEMENT_3D('',#1220,#955,#956);
#811=AXIS2_PLACEMENT_3D('',#1221,#957,#958);
#812=AXIS2_PLACEMENT_3D('',#1222,#959,#960);
#813=AXIS2_PLACEMENT_3D('',#1226,#962,#963);
#814=AXIS2_PLACEMENT_3D('',#1227,#964,#965);
#815=AXIS2_PLACEMENT_3D('',#1229,#966,#967);
#816=AXIS2_PLACEMENT_3D('',#1230,#968,#969);
#817=AXIS2_PLACEMENT_3D('',#1231,#970,#971);
#818=AXIS2_PLACEMENT_3D('',#1235,#973,#974);
#819=AXIS2_PLACEMENT_3D('',#1236,#975,#976);
#820=AXIS2_PLACEMENT_3D('',#1238,#977,#978);
#821=AXIS2_PLACEMENT_3D('',#1239,#979,#980);
#822=AXIS2_PLACEMENT_3D('',#1240,#981,#982);
#823=AXIS2_PLACEMENT_3D('',#1244,#984,#985);
#824=AXIS2_PLACEMENT_3D('',#1245,#986,#987);
#825=AXIS2_PLACEMENT_3D('',#1247,#988,#989);
#826=AXIS2_PLACEMENT_3D('',#1248,#990,#991);
#827=AXIS2_PLACEMENT_3D('',#1249,#992,#993);
#828=AXIS2_PLACEMENT_3D('',#1253,#995,#996);
#829=AXIS2_PLACEMENT_3D('',#1254,#997,#998);
#830=AXIS2_PLACEMENT_3D('',#1256,#999,#1000);
#831=AXIS2_PLACEMENT_3D('',#1262,#1004,#1005);
#832=AXIS2_PLACEMENT_3D('',#1268,#1009,#1010);
#833=AXIS2_PLACEMENT_3D('',#1274,#1014,#1015);
#834=AXIS2_PLACEMENT_3D('',#1280,#1019,#1020);
#835=AXIS2_PLACEMENT_3D('',#1281,#1021,#1022);
#836=AXIS2_PLACEMENT_3D('',#1282,#1023,#1024);
#837=AXIS2_PLACEMENT_3D('',#1283,#1025,#1026);
#838=AXIS2_PLACEMENT_3D('',#1284,#1027,#1028);
#839=AXIS2_PLACEMENT_3D('',#1285,#1029,#1030);
#840=AXIS2_PLACEMENT_3D('',#1286,#1031,#1032);
#841=AXIS2_PLACEMENT_3D('',#1287,#1033,#1034);
#842=AXIS2_PLACEMENT_3D('',#1288,#1035,#1036);
#843=AXIS2_PLACEMENT_3D('',#1289,#1037,#1038);
#844=AXIS2_PLACEMENT_3D('',#1290,#1039,#1040);
#845=AXIS2_PLACEMENT_3D('',#1291,#1041,#1042);
#846=AXIS2_PLACEMENT_3D('',#1292,#1043,#1044);
#847=AXIS2_PLACEMENT_3D('',#1293,#1045,#1046);
#848=AXIS2_PLACEMENT_3D('',#1295,#1047,#1048);
#849=AXIS2_PLACEMENT_3D('',#1297,#1049,#1050);
#850=AXIS2_PLACEMENT_3D('',#1299,#1051,#1052);
#851=AXIS2_PLACEMENT_3D('',#1301,#1053,#1054);
#852=AXIS2_PLACEMENT_3D('',#1303,#1055,#1056);
#853=AXIS2_PLACEMENT_3D('',#1305,#1057,#1058);
#854=AXIS2_PLACEMENT_3D('',#1307,#1059,#1060);
#855=AXIS2_PLACEMENT_3D('',#1308,#1061,#1062);
#856=AXIS2_PLACEMENT_3D('',#1309,#1063,#1064);
#857=AXIS2_PLACEMENT_3D('',#1310,#1065,#1066);
#858=AXIS2_PLACEMENT_3D('',#1311,#1067,#1068);
#859=AXIS2_PLACEMENT_3D('',#1312,#1069,#1070);
#860=AXIS2_PLACEMENT_3D('',#1313,#1071,#1072);
#861=AXIS2_PLACEMENT_3D('',#1314,#1073,#1074);
#862=AXIS2_PLACEMENT_3D('',#1315,#1075,#1076);
#863=AXIS2_PLACEMENT_3D('',#1316,#1077,#1078);
#864=AXIS2_PLACEMENT_3D('',#1317,#1079,#1080);
#865=AXIS2_PLACEMENT_3D('',#1318,#1081,#1082);
#866=AXIS2_PLACEMENT_3D('',#1319,#1083,#1084);
#867=AXIS2_PLACEMENT_3D('',#1320,#1085,#1086);
#868=AXIS2_PLACEMENT_3D('',#1321,#1087,#1088);
#869=AXIS2_PLACEMENT_3D('',#1322,#1089,#1090);
#870=AXIS2_PLACEMENT_3D('',#1324,#1091,#1092);
#871=AXIS2_PLACEMENT_3D('',#1326,#1093,#1094);
#872=AXIS2_PLACEMENT_3D('',#1327,#1095,#1096);
#873=AXIS2_PLACEMENT_3D('',#1328,#1097,#1098);
#874=AXIS2_PLACEMENT_3D('',#1330,#1099,#1100);
#875=AXIS2_PLACEMENT_3D('',#1332,#1101,#1102);
#876=AXIS2_PLACEMENT_3D('',#1333,#1103,#1104);
#877=AXIS2_PLACEMENT_3D('',#1335,#1105,#1106);
#878=AXIS2_PLACEMENT_3D('',#1337,#1107,#1108);
#879=AXIS2_PLACEMENT_3D('',#1338,#1109,#1110);
#880=AXIS2_PLACEMENT_3D('',#1340,#1111,#1112);
#881=AXIS2_PLACEMENT_3D('',#1342,#1113,#1114);
#882=AXIS2_PLACEMENT_3D('',#1343,#1115,#1116);
#883=AXIS2_PLACEMENT_3D('',#1345,#1117,#1118);
#884=AXIS2_PLACEMENT_3D('',#1346,#1119,#1120);
#885=AXIS2_PLACEMENT_3D('',#1347,#1121,#1122);
#886=AXIS2_PLACEMENT_3D('',#1349,#1123,#1124);
#887=AXIS2_PLACEMENT_3D('',#1350,#1125,#1126);
#888=AXIS2_PLACEMENT_3D('',#1351,#1127,#1128);
#889=AXIS2_PLACEMENT_3D('',#1353,#1129,#1130);
#890=AXIS2_PLACEMENT_3D('',#1354,#1131,#1132);
#891=AXIS2_PLACEMENT_3D('',#1355,#1133,#1134);
#892=AXIS2_PLACEMENT_3D('',#1357,#1135,#1136);
#893=DIRECTION('',(0.,0.,1.));
#894=DIRECTION('',(1.,0.,0.));
#895=DIRECTION('',(1.,0.,0.));
#896=DIRECTION('',(0.,0.,1.));
#897=DIRECTION('',(0.,-1.,0.));
#898=DIRECTION('',(-1.77920356510441E-16,0.,1.));
#899=DIRECTION('',(0.,1.,0.));
#900=DIRECTION('',(-1.77920356510441E-16,0.,1.));
#901=DIRECTION('',(1.,0.,0.));
#902=DIRECTION('',(0.,0.,1.));
#903=DIRECTION('',(-1.77920356510442E-16,0.,1.));
#904=DIRECTION('',(0.,-1.,0.));
#905=DIRECTION('',(-1.77920356510442E-16,0.,1.));
#906=DIRECTION('',(0.,-1.,0.));
#907=DIRECTION('',(0.,0.,-1.));
#908=DIRECTION('',(0.,-1.,0.));
#909=DIRECTION('',(0.,-1.,0.));
#910=DIRECTION('',(1.,0.,0.));
#911=DIRECTION('',(0.,1.,0.));
#912=DIRECTION('',(1.,0.,0.));
#913=DIRECTION('',(0.,0.,-1.));
#914=DIRECTION('',(0.,-1.,0.));
#915=DIRECTION('',(1.,0.,0.));
#916=DIRECTION('',(0.,-1.,0.));
#917=DIRECTION('',(1.,0.,0.));
#918=DIRECTION('',(0.,-1.,0.));
#919=DIRECTION('',(1.,0.,0.));
#920=DIRECTION('',(0.,0.,1.));
#921=DIRECTION('',(-1.77920356510442E-16,0.,1.));
#922=DIRECTION('',(0.,-1.,0.));
#923=DIRECTION('',(-1.77920356510442E-16,0.,1.));
#924=DIRECTION('',(0.,1.,0.));
#925=DIRECTION('',(1.,0.,0.));
#926=DIRECTION('',(0.,0.,1.));
#927=DIRECTION('',(0.,-1.,0.));
#928=DIRECTION('',(-1.77920356510442E-16,0.,1.));
#929=DIRECTION('',(0.,-1.,0.));
#930=DIRECTION('',(-1.77920356510442E-16,0.,1.));
#931=DIRECTION('',(0.,0.,-1.));
#932=DIRECTION('',(0.,-1.,0.));
#933=DIRECTION('',(1.,0.,0.));
#934=DIRECTION('',(0.,-1.,0.));
#935=DIRECTION('',(1.,0.,0.));
#936=DIRECTION('',(0.,1.,0.));
#937=DIRECTION('',(0.,0.,-1.));
#938=DIRECTION('',(0.,-1.,0.));
#939=DIRECTION('',(0.,-1.,0.));
#940=DIRECTION('',(1.,0.,0.));
#941=DIRECTION('',(0.,-1.,0.));
#942=DIRECTION('',(1.,0.,0.));
#943=DIRECTION('',(0.,1.,0.));
#944=DIRECTION('',(1.,0.,0.));
#945=DIRECTION('',(0.,1.,0.));
#946=DIRECTION('',(1.,0.,0.));
#947=DIRECTION('',(0.,1.,0.));
#948=DIRECTION('',(0.,0.,1.));
#949=DIRECTION('',(0.,1.,0.));
#950=DIRECTION('',(1.,0.,0.));
#951=DIRECTION('',(0.,1.,0.));
#952=DIRECTION('',(1.,0.,0.));
#953=DIRECTION('',(0.,1.,0.));
#954=DIRECTION('',(0.,0.,1.));
#955=DIRECTION('',(0.,1.,0.));
#956=DIRECTION('',(1.,0.,0.));
#957=DIRECTION('',(0.,-1.,0.));
#958=DIRECTION('',(0.,0.,-1.));
#959=DIRECTION('',(0.,-1.,0.));
#960=DIRECTION('',(1.,0.,0.));
#961=DIRECTION('',(1.,0.,0.));
#962=DIRECTION('',(0.,-1.,0.));
#963=DIRECTION('',(1.,0.,0.));
#964=DIRECTION('',(0.,1.,0.));
#965=DIRECTION('',(0.,0.,1.));
#966=DIRECTION('',(0.,1.,0.));
#967=DIRECTION('',(1.,0.,0.));
#968=DIRECTION('',(0.,-1.,0.));
#969=DIRECTION('',(0.,0.,-1.));
#970=DIRECTION('',(0.,-1.,0.));
#971=DIRECTION('',(1.,0.,0.));
#972=DIRECTION('',(0.,0.,1.));
#973=DIRECTION('',(0.,-1.,0.));
#974=DIRECTION('',(1.,0.,0.));
#975=DIRECTION('',(0.,1.,0.));
#976=DIRECTION('',(0.,0.,1.));
#977=DIRECTION('',(0.,1.,0.));
#978=DIRECTION('',(1.,0.,0.));
#979=DIRECTION('',(0.,-1.,0.));
#980=DIRECTION('',(0.,0.,-1.));
#981=DIRECTION('',(0.,-1.,0.));
#982=DIRECTION('',(1.,0.,0.));
#983=DIRECTION('',(1.,0.,0.));
#984=DIRECTION('',(0.,-1.,0.));
#985=DIRECTION('',(1.,0.,0.));
#986=DIRECTION('',(0.,1.,0.));
#987=DIRECTION('',(0.,0.,1.));
#988=DIRECTION('',(0.,1.,0.));
#989=DIRECTION('',(1.,0.,0.));
#990=DIRECTION('',(0.,-1.,0.));
#991=DIRECTION('',(0.,0.,-1.));
#992=DIRECTION('',(0.,-1.,0.));
#993=DIRECTION('',(1.,0.,0.));
#994=DIRECTION('',(0.,0.,1.));
#995=DIRECTION('',(0.,-1.,0.));
#996=DIRECTION('',(1.,0.,0.));
#997=DIRECTION('',(0.,1.,0.));
#998=DIRECTION('',(0.,0.,1.));
#999=DIRECTION('',(0.,0.,-1.));
#1000=DIRECTION('',(0.,-1.,0.));
#1001=DIRECTION('',(1.,0.,0.));
#1002=DIRECTION('',(0.,-1.,0.));
#1003=DIRECTION('',(0.,1.,0.));
#1004=DIRECTION('',(1.,0.,0.));
#1005=DIRECTION('',(0.,1.,0.));
#1006=DIRECTION('',(0.,1.,0.));
#1007=DIRECTION('',(0.,0.,1.));
#1008=DIRECTION('',(0.,-1.,0.));
#1009=DIRECTION('',(0.,0.,-1.));
#1010=DIRECTION('',(0.,-1.,0.));
#1011=DIRECTION('',(1.,0.,0.));
#1012=DIRECTION('',(0.,-1.,0.));
#1013=DIRECTION('',(0.,1.,0.));
#1014=DIRECTION('',(1.,0.,0.));
#1015=DIRECTION('',(0.,1.,0.));
#1016=DIRECTION('',(0.,0.,1.));
#1017=DIRECTION('',(0.,-1.,0.));
#1018=DIRECTION('',(0.,1.,0.));
#1019=DIRECTION('',(0.,1.,0.));
#1020=DIRECTION('',(1.,0.,0.));
#1021=DIRECTION('',(0.,1.,0.));
#1022=DIRECTION('',(0.,0.,1.));
#1023=DIRECTION('',(0.,1.,0.));
#1024=DIRECTION('',(1.,0.,0.));
#1025=DIRECTION('',(0.,1.,0.));
#1026=DIRECTION('',(1.,0.,0.));
#1027=DIRECTION('',(0.,1.,0.));
#1028=DIRECTION('',(0.,0.,1.));
#1029=DIRECTION('',(0.,1.,0.));
#1030=DIRECTION('',(1.,0.,0.));
#1031=DIRECTION('',(0.,1.,0.));
#1032=DIRECTION('',(1.,0.,0.));
#1033=DIRECTION('',(0.,1.,0.));
#1034=DIRECTION('',(0.,0.,1.));
#1035=DIRECTION('',(0.,1.,0.));
#1036=DIRECTION('',(1.,0.,0.));
#1037=DIRECTION('',(0.,1.,0.));
#1038=DIRECTION('',(1.,0.,0.));
#1039=DIRECTION('',(0.,1.,0.));
#1040=DIRECTION('',(0.,0.,1.));
#1041=DIRECTION('',(0.,1.,0.));
#1042=DIRECTION('',(1.,0.,0.));
#1043=DIRECTION('',(0.,1.,0.));
#1044=DIRECTION('',(1.,0.,0.));
#1045=DIRECTION('',(0.,1.,0.));
#1046=DIRECTION('',(0.,0.,1.));
#1047=DIRECTION('',(0.,1.,0.));
#1048=DIRECTION('',(0.,0.,1.));
#1049=DIRECTION('',(0.,1.,0.));
#1050=DIRECTION('',(0.,0.,1.));
#1051=DIRECTION('',(0.,-1.,0.));
#1052=DIRECTION('',(1.,0.,0.));
#1053=DIRECTION('',(0.,-1.,0.));
#1054=DIRECTION('',(1.,0.,0.));
#1055=DIRECTION('',(0.,-1.,0.));
#1056=DIRECTION('',(1.,0.,0.));
#1057=DIRECTION('',(0.,-1.,0.));
#1058=DIRECTION('',(1.,0.,0.));
#1059=DIRECTION('',(0.,-1.,0.));
#1060=DIRECTION('',(-1.,0.,0.));
#1061=DIRECTION('',(0.,-1.,0.));
#1062=DIRECTION('',(-1.,0.,0.));
#1063=DIRECTION('',(0.,1.,0.));
#1064=DIRECTION('',(1.,0.,0.));
#1065=DIRECTION('',(0.,1.,0.));
#1066=DIRECTION('',(1.,0.,0.));
#1067=DIRECTION('',(0.,-1.,0.));
#1068=DIRECTION('',(-1.,0.,0.));
#1069=DIRECTION('',(0.,-1.,0.));
#1070=DIRECTION('',(-1.,0.,0.));
#1071=DIRECTION('',(0.,1.,0.));
#1072=DIRECTION('',(1.,0.,0.));
#1073=DIRECTION('',(0.,1.,0.));
#1074=DIRECTION('',(1.,0.,0.));
#1075=DIRECTION('',(0.,-1.,0.));
#1076=DIRECTION('',(-1.,0.,0.));
#1077=DIRECTION('',(0.,-1.,0.));
#1078=DIRECTION('',(-1.,0.,0.));
#1079=DIRECTION('',(0.,-1.,0.));
#1080=DIRECTION('',(-1.,0.,0.));
#1081=DIRECTION('',(0.,-1.,0.));
#1082=DIRECTION('',(-1.,0.,0.));
#1083=DIRECTION('',(0.,-1.,0.));
#1084=DIRECTION('',(0.,0.,-1.));
#1085=DIRECTION('',(0.,1.,0.));
#1086=DIRECTION('',(0.,0.,1.));
#1087=DIRECTION('',(0.,-1.,0.));
#1088=DIRECTION('',(1.,0.,0.));
#1089=DIRECTION('',(0.,-1.,0.));
#1090=DIRECTION('',(0.,0.,-1.));
#1091=DIRECTION('',(0.,-1.,0.));
#1092=DIRECTION('',(0.,0.,-1.));
#1093=DIRECTION('',(0.,1.,0.));
#1094=DIRECTION('',(0.,0.,1.));
#1095=DIRECTION('',(0.,-1.,0.));
#1096=DIRECTION('',(-1.,0.,0.));
#1097=DIRECTION('',(0.,-1.,0.));
#1098=DIRECTION('',(0.,0.,-1.));
#1099=DIRECTION('',(0.,1.,0.));
#1100=DIRECTION('',(1.,0.,0.));
#1101=DIRECTION('',(0.,-1.,0.));
#1102=DIRECTION('',(0.,0.,-1.));
#1103=DIRECTION('',(0.,-1.,0.));
#1104=DIRECTION('',(0.,0.,-1.));
#1105=DIRECTION('',(0.,-1.,0.));
#1106=DIRECTION('',(0.,0.,-1.));
#1107=DIRECTION('',(0.,-1.,0.));
#1108=DIRECTION('',(0.,0.,-1.));
#1109=DIRECTION('',(0.,-1.,0.));
#1110=DIRECTION('',(0.,0.,-1.));
#1111=DIRECTION('',(0.,-1.,0.));
#1112=DIRECTION('',(0.,0.,-1.));
#1113=DIRECTION('',(0.,1.,0.));
#1114=DIRECTION('',(1.,0.,0.));
#1115=DIRECTION('',(0.,-1.,0.));
#1116=DIRECTION('',(0.,0.,-1.));
#1117=DIRECTION('',(0.,-1.,0.));
#1118=DIRECTION('',(0.,0.,-1.));
#1119=DIRECTION('',(0.,-1.,0.));
#1120=DIRECTION('',(1.,0.,0.));
#1121=DIRECTION('',(0.,-1.,0.));
#1122=DIRECTION('',(0.,0.,-1.));
#1123=DIRECTION('',(0.,1.,0.));
#1124=DIRECTION('',(0.,0.,1.));
#1125=DIRECTION('',(0.,1.,0.));
#1126=DIRECTION('',(0.,0.,1.));
#1127=DIRECTION('',(0.,-1.,0.));
#1128=DIRECTION('',(0.,0.,-1.));
#1129=DIRECTION('',(0.,-1.,0.));
#1130=DIRECTION('',(1.,0.,0.));
#1131=DIRECTION('',(0.,1.,0.));
#1132=DIRECTION('',(0.,0.,1.));
#1133=DIRECTION('',(0.,-1.,0.));
#1134=DIRECTION('',(0.,0.,-1.));
#1135=DIRECTION('',(0.,-1.,0.));
#1136=DIRECTION('',(1.,0.,0.));
#1137=CARTESIAN_POINT('',(0.,0.,0.));
#1138=CARTESIAN_POINT('',(-0.0112972189602431,-0.0306623242460076,0.202263783632024));
#1139=CARTESIAN_POINT('',(-0.0112972189602431,-0.0306603242460076,0.207323458181581));
#1140=CARTESIAN_POINT('',(-0.0112972189602431,-0.0356623242460076,0.207323458181581));
#1141=CARTESIAN_POINT('',(-0.0112972189602431,-0.0306623242460076,0.207323458181581));
#1142=CARTESIAN_POINT('',(-0.0112972189602431,-0.0356623242460076,0.202263783632024));
#1143=CARTESIAN_POINT('',(-0.0112972189602431,-0.0356623242460076,0.194513783632024));
#1144=CARTESIAN_POINT('',(-0.0112972189602431,-0.0306623242460076,0.194513783632024));
#1145=CARTESIAN_POINT('',(-0.0112972189602431,-0.0306623242460076,0.194513783632024));
#1146=CARTESIAN_POINT('',(-0.0112972189602431,-0.0306623242460076,0.202263783632024));
#1147=CARTESIAN_POINT('',(-0.023297218960243,-0.0306623242460076,0.202263783632024));
#1148=CARTESIAN_POINT('',(-0.023297218960243,-0.0356623242460076,0.202263783632024));
#1149=CARTESIAN_POINT('',(-0.023297218960243,-0.0356623242460076,0.194513783632024));
#1150=CARTESIAN_POINT('',(-0.023297218960243,-0.0356623242460076,0.207323458181581));
#1151=CARTESIAN_POINT('',(-0.023297218960243,-0.0306603242460076,0.207323458181581));
#1152=CARTESIAN_POINT('',(-0.023297218960243,-0.0306623242460076,0.207323458181581));
#1153=CARTESIAN_POINT('',(-0.023297218960243,-0.0306623242460076,0.202263783632024));
#1154=CARTESIAN_POINT('',(-0.023297218960243,-0.0306623242460076,0.194513783632024));
#1155=CARTESIAN_POINT('',(-0.023297218960243,-0.0356623242460076,0.194513783632024));
#1156=CARTESIAN_POINT('',(-0.035047218960243,-0.0306623242460076,0.214013783632024));
#1157=CARTESIAN_POINT('',(-0.0299875444106858,-0.0306603242460076,0.214013783632024));
#1158=CARTESIAN_POINT('',(-0.0299875444106858,-0.0356623242460076,0.214013783632024));
#1159=CARTESIAN_POINT('',(-0.0299875444106858,-0.0306623242460076,0.214013783632024));
#1160=CARTESIAN_POINT('',(-0.035047218960243,-0.0356623242460076,0.214013783632024));
#1161=CARTESIAN_POINT('',(-0.042797218960243,-0.0356623242460076,0.214013783632024));
#1162=CARTESIAN_POINT('',(-0.042797218960243,-0.0306623242460076,0.214013783632024));
#1163=CARTESIAN_POINT('',(-0.042797218960243,-0.0306623242460076,0.214013783632024));
#1164=CARTESIAN_POINT('',(-0.035047218960243,-0.0306623242460076,0.214013783632024));
#1165=CARTESIAN_POINT('',(-0.035047218960243,-0.0306623242460076,0.226013783632024));
#1166=CARTESIAN_POINT('',(-0.035047218960243,-0.0356623242460076,0.226013783632024));
#1167=CARTESIAN_POINT('',(-0.042797218960243,-0.0356623242460076,0.226013783632024));
#1168=CARTESIAN_POINT('',(-0.0299875444106858,-0.0356623242460076,0.226013783632024));
#1169=CARTESIAN_POINT('',(-0.0299875444106858,-0.0306603242460076,0.226013783632024));
#1170=CARTESIAN_POINT('',(-0.0299875444106858,-0.0306623242460076,0.226013783632024));
#1171=CARTESIAN_POINT('',(-0.035047218960243,-0.0306623242460076,0.226013783632024));
#1172=CARTESIAN_POINT('',(-0.042797218960243,-0.0306623242460076,0.226013783632024));
#1173=CARTESIAN_POINT('',(-0.042797218960243,-0.0306623242460076,0.226013783632024));
#1174=CARTESIAN_POINT('',(-0.023297218960243,-0.0306623242460076,0.202263783632024));
#1175=CARTESIAN_POINT('',(-0.023297218960243,-0.0306623242460076,0.237763783632024));
#1176=CARTESIAN_POINT('',(-0.023297218960243,-0.0306623242460076,0.232704109082466));
#1177=CARTESIAN_POINT('',(-0.023297218960243,-0.0306623242460076,0.245513783632024));
#1178=CARTESIAN_POINT('',(-0.023297218960243,-0.0306603242460076,0.232704109082466));
#1179=CARTESIAN_POINT('',(-0.023297218960243,-0.0356623242460076,0.232704109082466));
#1180=CARTESIAN_POINT('',(-0.023297218960243,-0.0356623242460076,0.237763783632024));
#1181=CARTESIAN_POINT('',(-0.023297218960243,-0.0356623242460076,0.245513783632024));
#1182=CARTESIAN_POINT('',(-0.023297218960243,-0.0306623242460076,0.245513783632024));
#1183=CARTESIAN_POINT('',(-0.0112972189602431,-0.0306623242460076,0.202263783632024));
#1184=CARTESIAN_POINT('',(-0.0112972189602431,-0.0306603242460076,0.232704109082466));
#1185=CARTESIAN_POINT('',(-0.0112972189602431,-0.0306623242460076,0.232704109082466));
#1186=CARTESIAN_POINT('',(-0.0112972189602431,-0.0356623242460076,0.232704109082466));
#1187=CARTESIAN_POINT('',(-0.0112972189602431,-0.0306623242460076,0.237763783632024));
#1188=CARTESIAN_POINT('',(-0.0112972189602431,-0.0306623242460076,0.245513783632024));
#1189=CARTESIAN_POINT('',(-0.0112972189602431,-0.0356623242460076,0.245513783632024));
#1190=CARTESIAN_POINT('',(-0.0112972189602431,-0.0356623242460076,0.245513783632024));
#1191=CARTESIAN_POINT('',(-0.0112972189602431,-0.0356623242460076,0.237763783632024));
#1192=CARTESIAN_POINT('',(-0.035047218960243,-0.0306623242460076,0.226013783632024));
#1193=CARTESIAN_POINT('',(0.00045278103975694,-0.0306623242460076,0.226013783632024));
#1194=CARTESIAN_POINT('',(-0.00460689350980047,-0.0306623242460076,0.226013783632024));
#1195=CARTESIAN_POINT('',(0.00820278103975695,-0.0306623242460076,0.226013783632024));
#1196=CARTESIAN_POINT('',(-0.00460689350980047,-0.0306603242460076,0.226013783632024));
#1197=CARTESIAN_POINT('',(-0.00460689350980047,-0.0356623242460076,0.226013783632024));
#1198=CARTESIAN_POINT('',(0.00045278103975694,-0.0356623242460076,0.226013783632024));
#1199=CARTESIAN_POINT('',(0.00820278103975695,-0.0356623242460076,0.226013783632024));
#1200=CARTESIAN_POINT('',(0.00820278103975695,-0.0306623242460076,0.226013783632024));
#1201=CARTESIAN_POINT('',(-0.035047218960243,-0.0306623242460076,0.214013783632024));
#1202=CARTESIAN_POINT('',(-0.00460689350980045,-0.0306603242460076,0.214013783632024));
#1203=CARTESIAN_POINT('',(-0.00460689350980045,-0.0306623242460076,0.214013783632024));
#1204=CARTESIAN_POINT('',(-0.00460689350980045,-0.0356623242460076,0.214013783632024));
#1205=CARTESIAN_POINT('',(0.00045278103975694,-0.0306623242460076,0.214013783632024));
#1206=CARTESIAN_POINT('',(0.00820278103975695,-0.0306623242460076,0.214013783632024));
#1207=CARTESIAN_POINT('',(0.00820278103975695,-0.0306623242460076,0.214013783632024));
#1208=CARTESIAN_POINT('',(0.00820278103975695,-0.0356623242460076,0.214013783632024));
#1209=CARTESIAN_POINT('',(0.00045278103975694,-0.0356623242460076,0.214013783632024));
#1210=CARTESIAN_POINT('',(-0.017297218960243,-0.0324623242460077,0.200013783632024));
#1211=CARTESIAN_POINT('',(-0.017297218960243,-0.0324623242460077,0.240013783632024));
#1212=CARTESIAN_POINT('',(-0.015097218960243,-0.0324623242460077,0.240013783632024));
#1213=CARTESIAN_POINT('',(-0.0172951393760741,-0.0324623242460077,0.240014165639878));
#1214=CARTESIAN_POINT('',(-0.0172951393760741,-0.0324623242460077,0.24226471799942));
#1215=CARTESIAN_POINT('',(-0.017297218960243,-0.0324623242460077,0.200013783632024));
#1216=CARTESIAN_POINT('',(0.00270278103975694,-0.0324623242460077,0.220013783632024));
#1217=CARTESIAN_POINT('',(0.00490278103975694,-0.0324623242460077,0.220013783632024));
#1218=CARTESIAN_POINT('',(0.00270065813674591,-0.0324623242460077,0.220054447650909));
#1219=CARTESIAN_POINT('',(0.00270065813674591,-0.0324623242460077,0.222330089696517));
#1220=CARTESIAN_POINT('',(-0.017297218960243,-0.0356623242460076,0.220013783632024));
#1221=CARTESIAN_POINT('',(-0.0172972189602431,-0.0356623242460076,0.220013783632024));
#1222=CARTESIAN_POINT('',(-0.021297218960243,-0.0356623242460076,0.194513783632024));
#1223=CARTESIAN_POINT('',(-0.021297218960243,-0.0356623242460076,0.192513783632024));
#1224=CARTESIAN_POINT('',(-0.017297218960243,-0.0356623242460076,0.192513783632024));
#1225=CARTESIAN_POINT('',(-0.0132972189602431,-0.0356623242460076,0.192513783632024));
#1226=CARTESIAN_POINT('',(-0.0132972189602431,-0.0356623242460076,0.194513783632024));
#1227=CARTESIAN_POINT('',(-0.017297218960243,-0.0356623242460076,0.200013783632024));
#1228=CARTESIAN_POINT('',(-0.017297218960243,-0.0356623242460076,0.202213783632024));
#1229=CARTESIAN_POINT('',(-0.017297218960243,-0.0356623242460076,0.220013783632024));
#1230=CARTESIAN_POINT('',(-0.0172972189602431,-0.0356623242460076,0.220013783632024));
#1231=CARTESIAN_POINT('',(-0.042797218960243,-0.0356623242460076,0.224013783632024));
#1232=CARTESIAN_POINT('',(-0.044797218960243,-0.0356623242460076,0.224013783632024));
#1233=CARTESIAN_POINT('',(-0.044797218960243,-0.0356623242460076,0.220013783632024));
#1234=CARTESIAN_POINT('',(-0.044797218960243,-0.0356623242460076,0.216013783632024));
#1235=CARTESIAN_POINT('',(-0.042797218960243,-0.0356623242460076,0.216013783632024));
#1236=CARTESIAN_POINT('',(-0.037297218960243,-0.0356623242460076,0.220013783632024));
#1237=CARTESIAN_POINT('',(-0.037297218960243,-0.0356623242460076,0.222213783632024));
#1238=CARTESIAN_POINT('',(-0.017297218960243,-0.0356623242460076,0.220013783632024));
#1239=CARTESIAN_POINT('',(-0.0172972189602431,-0.0356623242460076,0.220013783632024));
#1240=CARTESIAN_POINT('',(-0.0132972189602431,-0.0356623242460076,0.245513783632024));
#1241=CARTESIAN_POINT('',(-0.0132972189602431,-0.0356623242460076,0.247513783632024));
#1242=CARTESIAN_POINT('',(-0.017297218960243,-0.0356623242460076,0.247513783632024));
#1243=CARTESIAN_POINT('',(-0.021297218960243,-0.0356623242460076,0.247513783632024));
#1244=CARTESIAN_POINT('',(-0.021297218960243,-0.0356623242460076,0.245513783632024));
#1245=CARTESIAN_POINT('',(-0.0172951393760741,-0.0356623242460076,0.240014165639878));
#1246=CARTESIAN_POINT('',(-0.0172951393760741,-0.0356623242460076,0.24226471799942));
#1247=CARTESIAN_POINT('',(-0.017297218960243,-0.0356623242460076,0.220013783632024));
#1248=CARTESIAN_POINT('',(-0.0172972189602431,-0.0356623242460076,0.220013783632024));
#1249=CARTESIAN_POINT('',(0.00820278103975695,-0.0356623242460076,0.216013783632024));
#1250=CARTESIAN_POINT('',(0.0102027810397569,-0.0356623242460076,0.216013783632024));
#1251=CARTESIAN_POINT('',(0.0102027810397569,-0.0356623242460076,0.220013783632024));
#1252=CARTESIAN_POINT('',(0.0102027810397569,-0.0356623242460076,0.224013783632024));
#1253=CARTESIAN_POINT('',(0.00820278103975695,-0.0356623242460076,0.224013783632024));
#1254=CARTESIAN_POINT('',(0.00270065813674591,-0.0356623242460076,0.220054447650909));
#1255=CARTESIAN_POINT('',(0.00270065813674591,-0.0356623242460076,0.222330089696517));
#1256=CARTESIAN_POINT('',(-0.017297218960243,-0.0306623242460076,0.192513783632024));
#1257=CARTESIAN_POINT('',(-0.017297218960243,-0.0306623242460076,0.192513783632024));
#1258=CARTESIAN_POINT('',(-0.021297218960243,-0.0306623242460076,0.192513783632024));
#1259=CARTESIAN_POINT('',(-0.0132972189602431,-0.0306623242460076,0.192513783632024));
#1260=CARTESIAN_POINT('',(-0.0132972189602431,-0.0306623242460076,0.192513783632024));
#1261=CARTESIAN_POINT('',(-0.021297218960243,-0.0306623242460076,0.192513783632024));
#1262=CARTESIAN_POINT('',(-0.044797218960243,-0.0306623242460076,0.220013783632024));
#1263=CARTESIAN_POINT('',(-0.044797218960243,-0.0306623242460076,0.224013783632024));
#1264=CARTESIAN_POINT('',(-0.044797218960243,-0.0306623242460076,0.224013783632024));
#1265=CARTESIAN_POINT('',(-0.044797218960243,-0.0306623242460076,0.220013783632024));
#1266=CARTESIAN_POINT('',(-0.044797218960243,-0.0306623242460076,0.216013783632024));
#1267=CARTESIAN_POINT('',(-0.044797218960243,-0.0356623242460076,0.216013783632024));
#1268=CARTESIAN_POINT('',(-0.017297218960243,-0.0306623242460076,0.247513783632024));
#1269=CARTESIAN_POINT('',(-0.017297218960243,-0.0306623242460076,0.247513783632024));
#1270=CARTESIAN_POINT('',(-0.021297218960243,-0.0306623242460076,0.247513783632024));
#1271=CARTESIAN_POINT('',(-0.0132972189602431,-0.0306623242460076,0.247513783632024));
#1272=CARTESIAN_POINT('',(-0.021297218960243,-0.0306623242460076,0.247513783632024));
#1273=CARTESIAN_POINT('',(-0.0132972189602431,-0.0306623242460076,0.247513783632024));
#1274=CARTESIAN_POINT('',(0.0102027810397569,-0.0306623242460076,0.220013783632024));
#1275=CARTESIAN_POINT('',(0.0102027810397569,-0.0306623242460076,0.220013783632024));
#1276=CARTESIAN_POINT('',(0.0102027810397569,-0.0306623242460076,0.216013783632024));
#1277=CARTESIAN_POINT('',(0.0102027810397569,-0.0306623242460076,0.224013783632024));
#1278=CARTESIAN_POINT('',(0.0102027810397569,-0.0356623242460076,0.224013783632024));
#1279=CARTESIAN_POINT('',(0.0102027810397569,-0.0306623242460076,0.216013783632024));
#1280=CARTESIAN_POINT('',(-0.017297218960243,-0.0306623242460076,0.220013783632024));
#1281=CARTESIAN_POINT('',(-0.0172972189602431,-0.0306623242460076,0.220013783632024));
#1282=CARTESIAN_POINT('',(-0.021297218960243,-0.0306623242460076,0.245513783632024));
#1283=CARTESIAN_POINT('',(-0.0132972189602431,-0.0306623242460076,0.245513783632024));
#1284=CARTESIAN_POINT('',(-0.0172972189602431,-0.0306623242460076,0.220013783632024));
#1285=CARTESIAN_POINT('',(0.00820278103975695,-0.0306623242460076,0.224013783632024));
#1286=CARTESIAN_POINT('',(0.00820278103975695,-0.0306623242460076,0.216013783632024));
#1287=CARTESIAN_POINT('',(-0.0172972189602431,-0.0306623242460076,0.220013783632024));
#1288=CARTESIAN_POINT('',(-0.0132972189602431,-0.0306623242460076,0.194513783632024));
#1289=CARTESIAN_POINT('',(-0.021297218960243,-0.0306623242460076,0.194513783632024));
#1290=CARTESIAN_POINT('',(-0.0172972189602431,-0.0306623242460076,0.220013783632024));
#1291=CARTESIAN_POINT('',(-0.042797218960243,-0.0306623242460076,0.216013783632024));
#1292=CARTESIAN_POINT('',(-0.042797218960243,-0.0306623242460076,0.224013783632024));
#1293=CARTESIAN_POINT('',(-0.0145382909104228,-0.0306623242460076,0.21525314450264));
#1294=CARTESIAN_POINT('',(-0.0145382909104228,-0.0306623242460076,0.218931842743899));
#1295=CARTESIAN_POINT('',(-0.0228370167315006,-0.0306623242460076,0.220013783632024));
#1296=CARTESIAN_POINT('',(-0.0228370167315006,-0.0306623242460076,0.223222267086887));
#1297=CARTESIAN_POINT('',(-0.0145382909104228,-0.0306623242460076,0.224763631820678));
#1298=CARTESIAN_POINT('',(-0.0145382909104228,-0.0306623242460076,0.228246451939388));
#1299=CARTESIAN_POINT('',(-0.017297218960243,-0.0306623242460076,0.240013783632024));
#1300=CARTESIAN_POINT('',(-0.015097218960243,-0.0306623242460076,0.240013783632024));
#1301=CARTESIAN_POINT('',(0.00270278103975694,-0.0306623242460076,0.220013783632024));
#1302=CARTESIAN_POINT('',(0.00490278103975694,-0.0306623242460076,0.220013783632024));
#1303=CARTESIAN_POINT('',(-0.017297218960243,-0.0306623242460076,0.200013783632024));
#1304=CARTESIAN_POINT('',(-0.015097218960243,-0.0306623242460076,0.200013783632024));
#1305=CARTESIAN_POINT('',(-0.037297218960243,-0.0306623242460076,0.220013783632024));
#1306=CARTESIAN_POINT('',(-0.035097218960243,-0.0306623242460076,0.220013783632024));
#1307=CARTESIAN_POINT('',(-0.042797218960243,-0.0306623242460076,0.224013783632024));
#1308=CARTESIAN_POINT('',(-0.021297218960243,-0.0306623242460076,0.245513783632024));
#1309=CARTESIAN_POINT('',(-0.0132972189602431,-0.0306623242460076,0.245513783632024));
#1310=CARTESIAN_POINT('',(0.00820278103975695,-0.0306623242460076,0.224013783632024));
#1311=CARTESIAN_POINT('',(0.00820278103975695,-0.0306623242460076,0.216013783632024));
#1312=CARTESIAN_POINT('',(-0.0132972189602431,-0.0306623242460076,0.194513783632024));
#1313=CARTESIAN_POINT('',(-0.021297218960243,-0.0306623242460076,0.194513783632024));
#1314=CARTESIAN_POINT('',(-0.042797218960243,-0.0306623242460076,0.216013783632024));
#1315=CARTESIAN_POINT('',(-0.017297218960243,0.0422899620945918,0.240013783632024));
#1316=CARTESIAN_POINT('',(0.00270278103975694,0.0422899620945918,0.220013783632024));
#1317=CARTESIAN_POINT('',(-0.037297218960243,0.0422899620945918,0.220013783632024));
#1318=CARTESIAN_POINT('',(-0.017297218960243,0.0422899620945918,0.200013783632024));
#1319=CARTESIAN_POINT('',(0.00270065813674591,-0.0311303242460076,0.220054447650909));
#1320=CARTESIAN_POINT('',(-0.0172951393760741,-0.0356643242460076,0.240014165639878));
#1321=CARTESIAN_POINT('',(-0.0238611335072881,-0.0470923242460076,0.220013783632024));
#1322=CARTESIAN_POINT('',(-0.0145382909104228,-0.0470923242460076,0.224763631820678));
#1323=CARTESIAN_POINT('',(-0.0145382909104228,-0.0470923242460076,0.221280811701969));
#1324=CARTESIAN_POINT('',(-0.0145472189602431,-0.0470923242460076,0.224776923352838));
#1325=CARTESIAN_POINT('',(-0.0145472189602431,-0.0470923242460076,0.221138068512077));
#1326=CARTESIAN_POINT('',(-0.0145382909104228,-0.0470923242460076,0.224763631820678));
#1327=CARTESIAN_POINT('',(-0.0172972189602431,-0.0306623242460076,0.220013783632024));
#1328=CARTESIAN_POINT('',(-0.0172972189602431,-0.0470923242460076,0.220013783632024));
#1329=CARTESIAN_POINT('',(-0.0172972189602431,-0.0470923242460076,0.210013783632024));
#1330=CARTESIAN_POINT('',(-0.017297218960243,-0.0536623242460077,0.220013783632024));
#1331=CARTESIAN_POINT('',(-0.007297218960243,-0.0536623242460077,0.220013783632024));
#1332=CARTESIAN_POINT('',(-0.0145472189602431,-0.0282623242460077,0.21525064391121));
#1333=CARTESIAN_POINT('',(-0.0145472189602431,-0.0470923242460076,0.21525064391121));
#1334=CARTESIAN_POINT('',(-0.0145472189602431,-0.0470923242460076,0.211377608255403));
#1335=CARTESIAN_POINT('',(-0.0145472189602431,-0.0536623242460077,0.21525064391121));
#1336=CARTESIAN_POINT('',(-0.0145472189602431,-0.0536623242460077,0.211377608255403));
#1337=CARTESIAN_POINT('',(-0.022797218960243,-0.0282623242460077,0.220013783632024));
#1338=CARTESIAN_POINT('',(-0.022797218960243,-0.0470923242460076,0.220013783632024));
#1339=CARTESIAN_POINT('',(-0.022797218960243,-0.0470923242460076,0.216673772743872));
#1340=CARTESIAN_POINT('',(-0.022797218960243,-0.0536623242460077,0.220013783632024));
#1341=CARTESIAN_POINT('',(-0.022797218960243,-0.0536623242460077,0.216673772743872));
#1342=CARTESIAN_POINT('',(-0.017297218960243,-0.0536623242460077,0.220013783632024));
#1343=CARTESIAN_POINT('',(-0.0145472189602431,-0.0536623242460077,0.224776923352838));
#1344=CARTESIAN_POINT('',(-0.0145472189602431,-0.0536623242460077,0.221138068512077));
#1345=CARTESIAN_POINT('',(-0.0145472189602431,-0.0282623242460077,0.224776923352838));
#1346=CARTESIAN_POINT('',(-0.0238611335072881,-0.0470923242460076,0.220013783632024));
#1347=CARTESIAN_POINT('',(-0.0228370167315006,-0.0470923242460076,0.220013783632024));
#1348=CARTESIAN_POINT('',(-0.0228370167315006,-0.0470923242460076,0.216805300177161));
#1349=CARTESIAN_POINT('',(-0.0228370167315006,-0.0470923242460076,0.220013783632024));
#1350=CARTESIAN_POINT('',(-0.0145382909104228,-0.0470923242460076,0.21525314450264));
#1351=CARTESIAN_POINT('',(-0.0145382909104228,-0.0470923242460076,0.21525314450264));
#1352=CARTESIAN_POINT('',(-0.0145382909104228,-0.0470923242460076,0.211574446261381));
#1353=CARTESIAN_POINT('',(-0.0238611335072881,-0.0470923242460076,0.220013783632024));
#1354=CARTESIAN_POINT('',(-0.0172972189602431,-0.0470923242460076,0.220013783632024));
#1355=CARTESIAN_POINT('',(-0.0172972189602431,-0.0470923242460076,0.220013783632024));
#1356=CARTESIAN_POINT('',(-0.0172972189602431,-0.0470923242460076,0.205976534612428));
#1357=CARTESIAN_POINT('',(-0.0238611335072881,-0.0470923242460076,0.220013783632024));
#1358=MECHANICAL_DESIGN_GEOMETRIC_PRESENTATION_REPRESENTATION('',(#784),
#1359);
#1359=(
GEOMETRIC_REPRESENTATION_CONTEXT(3)
GLOBAL_UNCERTAINTY_ASSIGNED_CONTEXT((#1360))
GLOBAL_UNIT_ASSIGNED_CONTEXT((#1363,#1362,#1361))
REPRESENTATION_CONTEXT('tilt-pulley-mount2','TOP_LEVEL_ASSEMBLY_PART')
);
#1360=UNCERTAINTY_MEASURE_WITH_UNIT(LENGTH_MEASURE(1.E-6),#1363,
'DISTANCE_ACCURACY_VALUE','Maximum Tolerance applied to model');
#1361=(
NAMED_UNIT(*)
SI_UNIT($,.STERADIAN.)
SOLID_ANGLE_UNIT()
);
#1362=(
NAMED_UNIT(*)
PLANE_ANGLE_UNIT()
SI_UNIT($,.RADIAN.)
);
#1363=(
LENGTH_UNIT()
NAMED_UNIT(*)
SI_UNIT($,.METRE.)
);
#1364=PRODUCT_DEFINITION_SHAPE('','',#1365);
#1365=PRODUCT_DEFINITION('','',#1367,#1366);
#1366=PRODUCT_DEFINITION_CONTEXT('',#1373,'design');
#1367=PRODUCT_DEFINITION_FORMATION_WITH_SPECIFIED_SOURCE('','',#1369,
 .NOT_KNOWN.);
#1368=PRODUCT_RELATED_PRODUCT_CATEGORY('','',(#1369));
#1369=PRODUCT('tilt-pulley-mount2','tilt-pulley-mount2',
'tilt-pulley-mount2',(#1371));
#1370=PRODUCT_CATEGORY('','');
#1371=PRODUCT_CONTEXT('',#1373,'mechanical');
#1372=APPLICATION_PROTOCOL_DEFINITION('international standard',
'ap242_managed_model_based_3d_engineering',2020,#1373);
#1373=APPLICATION_CONTEXT('managed model based 3d engineering');
ENDSEC;
END-ISO-10303-21;
