ISO-10303-21;
HEADER;
/* Generated by software containing ST-Developer
 * from STEP Tools, Inc. (www.steptools.com) 
 */
/* OPTION: using custom renumber hook */

FILE_DESCRIPTION(
/* description */ ('STEP AP242 Edition 2',
'CAx-IF Rec.Pracs.---Representation and Presentation of Product Manufa
cturing Information (PMI)---4.0---2014-10-13',
'CAx-IF Rec.Pracs.---3D Tessellated Geometry---0.4---2014-09-14','2;1',
'CAx-IF Rec.Pracs.---User Defined Attributes---1.5---2016-08-15'),
/* implementation_level */ '2;1');

FILE_NAME(
/* name */ 'Part Studio 1 - Part 1',
/* time_stamp */ '2026-05-02T01:45:33Z',
/* author */ (''),
/* organization */ (''),
/* preprocessor_version */ 'ST-DEVELOPER v20',
/* originating_system */ 'ONSHAPE BY PTC INC, 1.214',
/* authorisation */ '  ');

FILE_SCHEMA (('AP242_MANAGED_MODEL_BASED_3D_ENGINEERING_MIM_LF { 1 0 10303 442 3 1 4 }'));
ENDSEC;

DATA;
#10=SHAPE_REPRESENTATION_RELATIONSHIP('','',#997,#11);
#11=ADVANCED_BREP_SHAPE_REPRESENTATION('',(#995),#1551);
#12=ORIENTED_EDGE('',*,*,#276,.F.);
#13=ORIENTED_EDGE('',*,*,#277,.T.);
#14=ORIENTED_EDGE('',*,*,#278,.T.);
#15=ORIENTED_EDGE('',*,*,#279,.F.);
#16=ORIENTED_EDGE('',*,*,#280,.F.);
#17=ORIENTED_EDGE('',*,*,#281,.T.);
#18=ORIENTED_EDGE('',*,*,#282,.T.);
#19=ORIENTED_EDGE('',*,*,#283,.F.);
#20=ORIENTED_EDGE('',*,*,#284,.F.);
#21=ORIENTED_EDGE('',*,*,#285,.T.);
#22=ORIENTED_EDGE('',*,*,#286,.T.);
#23=ORIENTED_EDGE('',*,*,#287,.F.);
#24=ORIENTED_EDGE('',*,*,#288,.F.);
#25=ORIENTED_EDGE('',*,*,#289,.T.);
#26=ORIENTED_EDGE('',*,*,#290,.T.);
#27=ORIENTED_EDGE('',*,*,#291,.F.);
#28=ORIENTED_EDGE('',*,*,#292,.F.);
#29=ORIENTED_EDGE('',*,*,#293,.T.);
#30=ORIENTED_EDGE('',*,*,#294,.T.);
#31=ORIENTED_EDGE('',*,*,#295,.F.);
#32=ORIENTED_EDGE('',*,*,#296,.F.);
#33=ORIENTED_EDGE('',*,*,#297,.T.);
#34=ORIENTED_EDGE('',*,*,#298,.T.);
#35=ORIENTED_EDGE('',*,*,#299,.F.);
#36=ORIENTED_EDGE('',*,*,#300,.T.);
#37=ORIENTED_EDGE('',*,*,#301,.T.);
#38=ORIENTED_EDGE('',*,*,#302,.F.);
#39=ORIENTED_EDGE('',*,*,#303,.T.);
#40=ORIENTED_EDGE('',*,*,#304,.F.);
#41=ORIENTED_EDGE('',*,*,#305,.T.);
#42=ORIENTED_EDGE('',*,*,#306,.T.);
#43=ORIENTED_EDGE('',*,*,#307,.F.);
#44=ORIENTED_EDGE('',*,*,#308,.F.);
#45=ORIENTED_EDGE('',*,*,#309,.T.);
#46=ORIENTED_EDGE('',*,*,#310,.T.);
#47=ORIENTED_EDGE('',*,*,#311,.F.);
#48=ORIENTED_EDGE('',*,*,#312,.F.);
#49=ORIENTED_EDGE('',*,*,#313,.T.);
#50=ORIENTED_EDGE('',*,*,#314,.T.);
#51=ORIENTED_EDGE('',*,*,#315,.F.);
#52=ORIENTED_EDGE('',*,*,#316,.T.);
#53=ORIENTED_EDGE('',*,*,#317,.T.);
#54=ORIENTED_EDGE('',*,*,#318,.F.);
#55=ORIENTED_EDGE('',*,*,#319,.F.);
#56=ORIENTED_EDGE('',*,*,#320,.F.);
#57=ORIENTED_EDGE('',*,*,#321,.T.);
#58=ORIENTED_EDGE('',*,*,#322,.T.);
#59=ORIENTED_EDGE('',*,*,#323,.F.);
#60=ORIENTED_EDGE('',*,*,#324,.F.);
#61=ORIENTED_EDGE('',*,*,#325,.T.);
#62=ORIENTED_EDGE('',*,*,#326,.T.);
#63=ORIENTED_EDGE('',*,*,#327,.F.);
#64=ORIENTED_EDGE('',*,*,#328,.T.);
#65=ORIENTED_EDGE('',*,*,#329,.F.);
#66=ORIENTED_EDGE('',*,*,#330,.F.);
#67=ORIENTED_EDGE('',*,*,#331,.T.);
#68=ORIENTED_EDGE('',*,*,#332,.F.);
#69=ORIENTED_EDGE('',*,*,#333,.T.);
#70=ORIENTED_EDGE('',*,*,#334,.T.);
#71=ORIENTED_EDGE('',*,*,#335,.F.);
#72=ORIENTED_EDGE('',*,*,#336,.F.);
#73=ORIENTED_EDGE('',*,*,#337,.T.);
#74=ORIENTED_EDGE('',*,*,#338,.T.);
#75=ORIENTED_EDGE('',*,*,#339,.F.);
#76=ORIENTED_EDGE('',*,*,#340,.T.);
#77=ORIENTED_EDGE('',*,*,#341,.F.);
#78=ORIENTED_EDGE('',*,*,#342,.F.);
#79=ORIENTED_EDGE('',*,*,#343,.T.);
#80=ORIENTED_EDGE('',*,*,#344,.F.);
#81=ORIENTED_EDGE('',*,*,#345,.T.);
#82=ORIENTED_EDGE('',*,*,#346,.T.);
#83=ORIENTED_EDGE('',*,*,#347,.F.);
#84=ORIENTED_EDGE('',*,*,#348,.F.);
#85=ORIENTED_EDGE('',*,*,#349,.T.);
#86=ORIENTED_EDGE('',*,*,#300,.F.);
#87=ORIENTED_EDGE('',*,*,#350,.F.);
#88=ORIENTED_EDGE('',*,*,#343,.F.);
#89=ORIENTED_EDGE('',*,*,#351,.T.);
#90=ORIENTED_EDGE('',*,*,#352,.T.);
#91=ORIENTED_EDGE('',*,*,#353,.T.);
#92=ORIENTED_EDGE('',*,*,#354,.T.);
#93=ORIENTED_EDGE('',*,*,#288,.T.);
#94=ORIENTED_EDGE('',*,*,#355,.F.);
#95=ORIENTED_EDGE('',*,*,#331,.F.);
#96=ORIENTED_EDGE('',*,*,#340,.F.);
#97=ORIENTED_EDGE('',*,*,#350,.T.);
#98=ORIENTED_EDGE('',*,*,#303,.F.);
#99=ORIENTED_EDGE('',*,*,#356,.F.);
#100=ORIENTED_EDGE('',*,*,#355,.T.);
#101=ORIENTED_EDGE('',*,*,#291,.T.);
#102=ORIENTED_EDGE('',*,*,#357,.F.);
#103=ORIENTED_EDGE('',*,*,#328,.F.);
#104=ORIENTED_EDGE('',*,*,#358,.F.);
#105=ORIENTED_EDGE('',*,*,#359,.T.);
#106=ORIENTED_EDGE('',*,*,#360,.F.);
#107=ORIENTED_EDGE('',*,*,#341,.T.);
#108=ORIENTED_EDGE('',*,*,#356,.T.);
#109=ORIENTED_EDGE('',*,*,#302,.T.);
#110=ORIENTED_EDGE('',*,*,#361,.F.);
#111=ORIENTED_EDGE('',*,*,#362,.F.);
#112=ORIENTED_EDGE('',*,*,#363,.F.);
#113=ORIENTED_EDGE('',*,*,#329,.T.);
#114=ORIENTED_EDGE('',*,*,#357,.T.);
#115=ORIENTED_EDGE('',*,*,#290,.F.);
#116=ORIENTED_EDGE('',*,*,#364,.F.);
#117=ORIENTED_EDGE('',*,*,#365,.T.);
#118=ORIENTED_EDGE('',*,*,#316,.F.);
#119=ORIENTED_EDGE('',*,*,#366,.F.);
#120=ORIENTED_EDGE('',*,*,#367,.F.);
#121=ORIENTED_EDGE('',*,*,#368,.T.);
#122=ORIENTED_EDGE('',*,*,#366,.T.);
#123=ORIENTED_EDGE('',*,*,#319,.T.);
#124=ORIENTED_EDGE('',*,*,#342,.T.);
#125=ORIENTED_EDGE('',*,*,#360,.T.);
#126=ORIENTED_EDGE('',*,*,#369,.T.);
#127=ORIENTED_EDGE('',*,*,#351,.F.);
#128=ORIENTED_EDGE('',*,*,#330,.T.);
#129=ORIENTED_EDGE('',*,*,#363,.T.);
#130=ORIENTED_EDGE('',*,*,#370,.F.);
#131=ORIENTED_EDGE('',*,*,#352,.F.);
#132=ORIENTED_EDGE('',*,*,#371,.F.);
#133=ORIENTED_EDGE('',*,*,#372,.T.);
#134=ORIENTED_EDGE('',*,*,#367,.T.);
#135=ORIENTED_EDGE('',*,*,#318,.T.);
#136=ORIENTED_EDGE('',*,*,#373,.F.);
#137=ORIENTED_EDGE('',*,*,#371,.T.);
#138=ORIENTED_EDGE('',*,*,#317,.F.);
#139=ORIENTED_EDGE('',*,*,#365,.F.);
#140=ORIENTED_EDGE('',*,*,#301,.F.);
#141=ORIENTED_EDGE('',*,*,#349,.F.);
#142=ORIENTED_EDGE('',*,*,#374,.T.);
#143=ORIENTED_EDGE('',*,*,#358,.T.);
#144=ORIENTED_EDGE('',*,*,#374,.F.);
#145=ORIENTED_EDGE('',*,*,#348,.T.);
#146=ORIENTED_EDGE('',*,*,#369,.F.);
#147=ORIENTED_EDGE('',*,*,#359,.F.);
#148=ORIENTED_EDGE('',*,*,#289,.F.);
#149=ORIENTED_EDGE('',*,*,#354,.F.);
#150=ORIENTED_EDGE('',*,*,#375,.T.);
#151=ORIENTED_EDGE('',*,*,#361,.T.);
#152=ORIENTED_EDGE('',*,*,#375,.F.);
#153=ORIENTED_EDGE('',*,*,#353,.F.);
#154=ORIENTED_EDGE('',*,*,#370,.T.);
#155=ORIENTED_EDGE('',*,*,#362,.T.);
#156=ORIENTED_EDGE('',*,*,#376,.F.);
#157=ORIENTED_EDGE('',*,*,#377,.T.);
#158=ORIENTED_EDGE('',*,*,#378,.T.);
#159=ORIENTED_EDGE('',*,*,#379,.F.);
#160=ORIENTED_EDGE('',*,*,#373,.T.);
#161=ORIENTED_EDGE('',*,*,#364,.T.);
#162=ORIENTED_EDGE('',*,*,#368,.F.);
#163=ORIENTED_EDGE('',*,*,#372,.F.);
#164=ORIENTED_EDGE('',*,*,#378,.F.);
#165=ORIENTED_EDGE('',*,*,#380,.T.);
#166=ORIENTED_EDGE('',*,*,#277,.F.);
#167=ORIENTED_EDGE('',*,*,#381,.F.);
#168=ORIENTED_EDGE('',*,*,#377,.F.);
#169=ORIENTED_EDGE('',*,*,#382,.T.);
#170=ORIENTED_EDGE('',*,*,#278,.F.);
#171=ORIENTED_EDGE('',*,*,#380,.F.);
#172=ORIENTED_EDGE('',*,*,#382,.F.);
#173=ORIENTED_EDGE('',*,*,#376,.T.);
#174=ORIENTED_EDGE('',*,*,#383,.T.);
#175=ORIENTED_EDGE('',*,*,#279,.T.);
#176=ORIENTED_EDGE('',*,*,#383,.F.);
#177=ORIENTED_EDGE('',*,*,#379,.T.);
#178=ORIENTED_EDGE('',*,*,#381,.T.);
#179=ORIENTED_EDGE('',*,*,#276,.T.);
#180=ORIENTED_EDGE('',*,*,#384,.F.);
#181=ORIENTED_EDGE('',*,*,#339,.T.);
#182=ORIENTED_EDGE('',*,*,#385,.T.);
#183=ORIENTED_EDGE('',*,*,#294,.F.);
#184=ORIENTED_EDGE('',*,*,#295,.T.);
#185=ORIENTED_EDGE('',*,*,#385,.F.);
#186=ORIENTED_EDGE('',*,*,#338,.F.);
#187=ORIENTED_EDGE('',*,*,#386,.T.);
#188=ORIENTED_EDGE('',*,*,#292,.T.);
#189=ORIENTED_EDGE('',*,*,#386,.F.);
#190=ORIENTED_EDGE('',*,*,#337,.F.);
#191=ORIENTED_EDGE('',*,*,#387,.T.);
#192=ORIENTED_EDGE('',*,*,#387,.F.);
#193=ORIENTED_EDGE('',*,*,#336,.T.);
#194=ORIENTED_EDGE('',*,*,#384,.T.);
#195=ORIENTED_EDGE('',*,*,#293,.F.);
#196=ORIENTED_EDGE('',*,*,#388,.F.);
#197=ORIENTED_EDGE('',*,*,#347,.T.);
#198=ORIENTED_EDGE('',*,*,#389,.T.);
#199=ORIENTED_EDGE('',*,*,#298,.F.);
#200=ORIENTED_EDGE('',*,*,#299,.T.);
#201=ORIENTED_EDGE('',*,*,#389,.F.);
#202=ORIENTED_EDGE('',*,*,#346,.F.);
#203=ORIENTED_EDGE('',*,*,#390,.T.);
#204=ORIENTED_EDGE('',*,*,#296,.T.);
#205=ORIENTED_EDGE('',*,*,#390,.F.);
#206=ORIENTED_EDGE('',*,*,#345,.F.);
#207=ORIENTED_EDGE('',*,*,#391,.T.);
#208=ORIENTED_EDGE('',*,*,#391,.F.);
#209=ORIENTED_EDGE('',*,*,#344,.T.);
#210=ORIENTED_EDGE('',*,*,#388,.T.);
#211=ORIENTED_EDGE('',*,*,#297,.F.);
#212=ORIENTED_EDGE('',*,*,#327,.T.);
#213=ORIENTED_EDGE('',*,*,#392,.T.);
#214=ORIENTED_EDGE('',*,*,#282,.F.);
#215=ORIENTED_EDGE('',*,*,#393,.F.);
#216=ORIENTED_EDGE('',*,*,#394,.T.);
#217=ORIENTED_EDGE('',*,*,#283,.T.);
#218=ORIENTED_EDGE('',*,*,#392,.F.);
#219=ORIENTED_EDGE('',*,*,#326,.F.);
#220=ORIENTED_EDGE('',*,*,#395,.T.);
#221=ORIENTED_EDGE('',*,*,#280,.T.);
#222=ORIENTED_EDGE('',*,*,#394,.F.);
#223=ORIENTED_EDGE('',*,*,#325,.F.);
#224=ORIENTED_EDGE('',*,*,#324,.T.);
#225=ORIENTED_EDGE('',*,*,#393,.T.);
#226=ORIENTED_EDGE('',*,*,#281,.F.);
#227=ORIENTED_EDGE('',*,*,#395,.F.);
#228=ORIENTED_EDGE('',*,*,#335,.T.);
#229=ORIENTED_EDGE('',*,*,#396,.T.);
#230=ORIENTED_EDGE('',*,*,#286,.F.);
#231=ORIENTED_EDGE('',*,*,#397,.F.);
#232=ORIENTED_EDGE('',*,*,#398,.T.);
#233=ORIENTED_EDGE('',*,*,#287,.T.);
#234=ORIENTED_EDGE('',*,*,#396,.F.);
#235=ORIENTED_EDGE('',*,*,#334,.F.);
#236=ORIENTED_EDGE('',*,*,#399,.T.);
#237=ORIENTED_EDGE('',*,*,#284,.T.);
#238=ORIENTED_EDGE('',*,*,#398,.F.);
#239=ORIENTED_EDGE('',*,*,#333,.F.);
#240=ORIENTED_EDGE('',*,*,#332,.T.);
#241=ORIENTED_EDGE('',*,*,#397,.T.);
#242=ORIENTED_EDGE('',*,*,#285,.F.);
#243=ORIENTED_EDGE('',*,*,#399,.F.);
#244=ORIENTED_EDGE('',*,*,#400,.F.);
#245=ORIENTED_EDGE('',*,*,#312,.T.);
#246=ORIENTED_EDGE('',*,*,#401,.T.);
#247=ORIENTED_EDGE('',*,*,#305,.F.);
#248=ORIENTED_EDGE('',*,*,#304,.T.);
#249=ORIENTED_EDGE('',*,*,#402,.F.);
#250=ORIENTED_EDGE('',*,*,#313,.F.);
#251=ORIENTED_EDGE('',*,*,#400,.T.);
#252=ORIENTED_EDGE('',*,*,#307,.T.);
#253=ORIENTED_EDGE('',*,*,#403,.F.);
#254=ORIENTED_EDGE('',*,*,#314,.F.);
#255=ORIENTED_EDGE('',*,*,#402,.T.);
#256=ORIENTED_EDGE('',*,*,#401,.F.);
#257=ORIENTED_EDGE('',*,*,#315,.T.);
#258=ORIENTED_EDGE('',*,*,#403,.T.);
#259=ORIENTED_EDGE('',*,*,#306,.F.);
#260=ORIENTED_EDGE('',*,*,#404,.F.);
#261=ORIENTED_EDGE('',*,*,#320,.T.);
#262=ORIENTED_EDGE('',*,*,#405,.T.);
#263=ORIENTED_EDGE('',*,*,#309,.F.);
#264=ORIENTED_EDGE('',*,*,#308,.T.);
#265=ORIENTED_EDGE('',*,*,#406,.F.);
#266=ORIENTED_EDGE('',*,*,#321,.F.);
#267=ORIENTED_EDGE('',*,*,#404,.T.);
#268=ORIENTED_EDGE('',*,*,#311,.T.);
#269=ORIENTED_EDGE('',*,*,#407,.F.);
#270=ORIENTED_EDGE('',*,*,#322,.F.);
#271=ORIENTED_EDGE('',*,*,#406,.T.);
#272=ORIENTED_EDGE('',*,*,#405,.F.);
#273=ORIENTED_EDGE('',*,*,#323,.T.);
#274=ORIENTED_EDGE('',*,*,#407,.T.);
#275=ORIENTED_EDGE('',*,*,#310,.F.);
#276=EDGE_CURVE('',#408,#409,#496,.T.);
#277=EDGE_CURVE('',#408,#410,#497,.T.);
#278=EDGE_CURVE('',#410,#411,#498,.T.);
#279=EDGE_CURVE('',#409,#411,#499,.T.);
#280=EDGE_CURVE('',#412,#413,#500,.T.);
#281=EDGE_CURVE('',#412,#414,#501,.T.);
#282=EDGE_CURVE('',#414,#415,#502,.T.);
#283=EDGE_CURVE('',#413,#415,#503,.T.);
#284=EDGE_CURVE('',#416,#417,#504,.T.);
#285=EDGE_CURVE('',#416,#418,#505,.T.);
#286=EDGE_CURVE('',#418,#419,#506,.T.);
#287=EDGE_CURVE('',#417,#419,#507,.T.);
#288=EDGE_CURVE('',#420,#421,#508,.T.);
#289=EDGE_CURVE('',#420,#422,#509,.T.);
#290=EDGE_CURVE('',#422,#423,#510,.T.);
#291=EDGE_CURVE('',#421,#423,#511,.T.);
#292=EDGE_CURVE('',#424,#425,#512,.T.);
#293=EDGE_CURVE('',#424,#426,#513,.T.);
#294=EDGE_CURVE('',#426,#427,#514,.T.);
#295=EDGE_CURVE('',#425,#427,#515,.T.);
#296=EDGE_CURVE('',#428,#429,#516,.T.);
#297=EDGE_CURVE('',#428,#430,#517,.T.);
#298=EDGE_CURVE('',#430,#431,#518,.T.);
#299=EDGE_CURVE('',#429,#431,#519,.T.);
#300=EDGE_CURVE('',#432,#433,#520,.T.);
#301=EDGE_CURVE('',#433,#434,#521,.T.);
#302=EDGE_CURVE('',#435,#434,#522,.T.);
#303=EDGE_CURVE('',#435,#432,#523,.T.);
#304=EDGE_CURVE('',#436,#437,#524,.T.);
#305=EDGE_CURVE('',#436,#438,#525,.T.);
#306=EDGE_CURVE('',#438,#439,#526,.T.);
#307=EDGE_CURVE('',#437,#439,#527,.T.);
#308=EDGE_CURVE('',#440,#441,#528,.T.);
#309=EDGE_CURVE('',#440,#442,#529,.T.);
#310=EDGE_CURVE('',#442,#443,#530,.T.);
#311=EDGE_CURVE('',#441,#443,#531,.T.);
#312=EDGE_CURVE('',#444,#445,#532,.T.);
#313=EDGE_CURVE('',#444,#446,#533,.T.);
#314=EDGE_CURVE('',#446,#447,#534,.T.);
#315=EDGE_CURVE('',#445,#447,#535,.T.);
#316=EDGE_CURVE('',#448,#449,#536,.T.);
#317=EDGE_CURVE('',#449,#450,#537,.T.);
#318=EDGE_CURVE('',#451,#450,#538,.T.);
#319=EDGE_CURVE('',#448,#451,#539,.T.);
#320=EDGE_CURVE('',#452,#453,#540,.T.);
#321=EDGE_CURVE('',#452,#454,#541,.T.);
#322=EDGE_CURVE('',#454,#455,#542,.T.);
#323=EDGE_CURVE('',#453,#455,#543,.T.);
#324=EDGE_CURVE('',#456,#457,#544,.T.);
#325=EDGE_CURVE('',#456,#458,#545,.T.);
#326=EDGE_CURVE('',#458,#459,#546,.T.);
#327=EDGE_CURVE('',#457,#459,#547,.T.);
#328=EDGE_CURVE('',#460,#461,#548,.T.);
#329=EDGE_CURVE('',#462,#461,#549,.T.);
#330=EDGE_CURVE('',#463,#462,#550,.T.);
#331=EDGE_CURVE('',#463,#460,#551,.T.);
#332=EDGE_CURVE('',#464,#465,#552,.T.);
#333=EDGE_CURVE('',#464,#466,#553,.T.);
#334=EDGE_CURVE('',#466,#467,#554,.T.);
#335=EDGE_CURVE('',#465,#467,#555,.T.);
#336=EDGE_CURVE('',#468,#469,#556,.T.);
#337=EDGE_CURVE('',#468,#470,#557,.T.);
#338=EDGE_CURVE('',#470,#471,#558,.T.);
#339=EDGE_CURVE('',#469,#471,#559,.T.);
#340=EDGE_CURVE('',#472,#473,#560,.T.);
#341=EDGE_CURVE('',#474,#473,#561,.T.);
#342=EDGE_CURVE('',#475,#474,#562,.T.);
#343=EDGE_CURVE('',#475,#472,#563,.T.);
#344=EDGE_CURVE('',#476,#477,#564,.T.);
#345=EDGE_CURVE('',#476,#478,#565,.T.);
#346=EDGE_CURVE('',#478,#479,#566,.T.);
#347=EDGE_CURVE('',#477,#479,#567,.T.);
#348=EDGE_CURVE('',#480,#481,#568,.T.);
#349=EDGE_CURVE('',#480,#433,#569,.T.);
#350=EDGE_CURVE('',#472,#432,#570,.T.);
#351=EDGE_CURVE('',#475,#481,#571,.T.);
#352=EDGE_CURVE('',#463,#482,#572,.T.);
#353=EDGE_CURVE('',#482,#483,#573,.T.);
#354=EDGE_CURVE('',#483,#420,#574,.T.);
#355=EDGE_CURVE('',#460,#421,#575,.T.);
#356=EDGE_CURVE('',#473,#435,#576,.T.);
#357=EDGE_CURVE('',#461,#423,#577,.T.);
#358=EDGE_CURVE('',#484,#434,#578,.T.);
#359=EDGE_CURVE('',#484,#485,#579,.T.);
#360=EDGE_CURVE('',#474,#485,#580,.T.);
#361=EDGE_CURVE('',#486,#422,#581,.T.);
#362=EDGE_CURVE('',#487,#486,#582,.T.);
#363=EDGE_CURVE('',#462,#487,#583,.T.);
#364=EDGE_CURVE('',#488,#489,#584,.T.);
#365=EDGE_CURVE('',#488,#449,#585,.T.);
#366=EDGE_CURVE('',#489,#448,#586,.T.);
#367=EDGE_CURVE('',#490,#451,#587,.T.);
#368=EDGE_CURVE('',#490,#489,#588,.T.);
#369=EDGE_CURVE('',#485,#481,#589,.T.);
#370=EDGE_CURVE('',#482,#487,#590,.T.);
#371=EDGE_CURVE('',#491,#450,#591,.T.);
#372=EDGE_CURVE('',#491,#490,#592,.T.);
#373=EDGE_CURVE('',#491,#488,#593,.T.);
#374=EDGE_CURVE('',#480,#484,#594,.T.);
#375=EDGE_CURVE('',#483,#486,#595,.T.);
#376=EDGE_CURVE('',#492,#493,#596,.T.);
#377=EDGE_CURVE('',#492,#494,#597,.T.);
#378=EDGE_CURVE('',#494,#495,#598,.T.);
#379=EDGE_CURVE('',#493,#495,#599,.T.);
#380=EDGE_CURVE('',#494,#410,#600,.T.);
#381=EDGE_CURVE('',#495,#408,#601,.T.);
#382=EDGE_CURVE('',#492,#411,#602,.T.);
#383=EDGE_CURVE('',#493,#409,#603,.T.);
#384=EDGE_CURVE('',#469,#426,#604,.T.);
#385=EDGE_CURVE('',#471,#427,#605,.T.);
#386=EDGE_CURVE('',#470,#425,#606,.T.);
#387=EDGE_CURVE('',#468,#424,#607,.T.);
#388=EDGE_CURVE('',#477,#430,#608,.T.);
#389=EDGE_CURVE('',#479,#431,#609,.T.);
#390=EDGE_CURVE('',#478,#429,#610,.T.);
#391=EDGE_CURVE('',#476,#428,#611,.T.);
#392=EDGE_CURVE('',#459,#415,#612,.T.);
#393=EDGE_CURVE('',#457,#414,#613,.T.);
#394=EDGE_CURVE('',#458,#413,#614,.T.);
#395=EDGE_CURVE('',#456,#412,#615,.T.);
#396=EDGE_CURVE('',#467,#419,#616,.T.);
#397=EDGE_CURVE('',#465,#418,#617,.T.);
#398=EDGE_CURVE('',#466,#417,#618,.T.);
#399=EDGE_CURVE('',#464,#416,#619,.T.);
#400=EDGE_CURVE('',#444,#436,#620,.T.);
#401=EDGE_CURVE('',#445,#438,#621,.T.);
#402=EDGE_CURVE('',#446,#437,#622,.T.);
#403=EDGE_CURVE('',#447,#439,#623,.T.);
#404=EDGE_CURVE('',#452,#440,#624,.T.);
#405=EDGE_CURVE('',#453,#442,#625,.T.);
#406=EDGE_CURVE('',#454,#441,#626,.T.);
#407=EDGE_CURVE('',#455,#443,#627,.T.);
#408=VERTEX_POINT('',#1283);
#409=VERTEX_POINT('',#1284);
#410=VERTEX_POINT('',#1286);
#411=VERTEX_POINT('',#1288);
#412=VERTEX_POINT('',#1291);
#413=VERTEX_POINT('',#1292);
#414=VERTEX_POINT('',#1294);
#415=VERTEX_POINT('',#1296);
#416=VERTEX_POINT('',#1299);
#417=VERTEX_POINT('',#1300);
#418=VERTEX_POINT('',#1302);
#419=VERTEX_POINT('',#1304);
#420=VERTEX_POINT('',#1308);
#421=VERTEX_POINT('',#1309);
#422=VERTEX_POINT('',#1311);
#423=VERTEX_POINT('',#1313);
#424=VERTEX_POINT('',#1316);
#425=VERTEX_POINT('',#1317);
#426=VERTEX_POINT('',#1319);
#427=VERTEX_POINT('',#1321);
#428=VERTEX_POINT('',#1324);
#429=VERTEX_POINT('',#1325);
#430=VERTEX_POINT('',#1327);
#431=VERTEX_POINT('',#1329);
#432=VERTEX_POINT('',#1333);
#433=VERTEX_POINT('',#1334);
#434=VERTEX_POINT('',#1336);
#435=VERTEX_POINT('',#1338);
#436=VERTEX_POINT('',#1341);
#437=VERTEX_POINT('',#1342);
#438=VERTEX_POINT('',#1344);
#439=VERTEX_POINT('',#1346);
#440=VERTEX_POINT('',#1349);
#441=VERTEX_POINT('',#1350);
#442=VERTEX_POINT('',#1352);
#443=VERTEX_POINT('',#1354);
#444=VERTEX_POINT('',#1358);
#445=VERTEX_POINT('',#1359);
#446=VERTEX_POINT('',#1361);
#447=VERTEX_POINT('',#1363);
#448=VERTEX_POINT('',#1366);
#449=VERTEX_POINT('',#1367);
#450=VERTEX_POINT('',#1369);
#451=VERTEX_POINT('',#1371);
#452=VERTEX_POINT('',#1374);
#453=VERTEX_POINT('',#1375);
#454=VERTEX_POINT('',#1377);
#455=VERTEX_POINT('',#1379);
#456=VERTEX_POINT('',#1383);
#457=VERTEX_POINT('',#1384);
#458=VERTEX_POINT('',#1386);
#459=VERTEX_POINT('',#1388);
#460=VERTEX_POINT('',#1391);
#461=VERTEX_POINT('',#1392);
#462=VERTEX_POINT('',#1394);
#463=VERTEX_POINT('',#1396);
#464=VERTEX_POINT('',#1399);
#465=VERTEX_POINT('',#1400);
#466=VERTEX_POINT('',#1402);
#467=VERTEX_POINT('',#1404);
#468=VERTEX_POINT('',#1408);
#469=VERTEX_POINT('',#1409);
#470=VERTEX_POINT('',#1411);
#471=VERTEX_POINT('',#1413);
#472=VERTEX_POINT('',#1416);
#473=VERTEX_POINT('',#1417);
#474=VERTEX_POINT('',#1419);
#475=VERTEX_POINT('',#1421);
#476=VERTEX_POINT('',#1424);
#477=VERTEX_POINT('',#1425);
#478=VERTEX_POINT('',#1427);
#479=VERTEX_POINT('',#1429);
#480=VERTEX_POINT('',#1433);
#481=VERTEX_POINT('',#1434);
#482=VERTEX_POINT('',#1440);
#483=VERTEX_POINT('',#1442);
#484=VERTEX_POINT('',#1451);
#485=VERTEX_POINT('',#1453);
#486=VERTEX_POINT('',#1457);
#487=VERTEX_POINT('',#1459);
#488=VERTEX_POINT('',#1463);
#489=VERTEX_POINT('',#1464);
#490=VERTEX_POINT('',#1469);
#491=VERTEX_POINT('',#1475);
#492=VERTEX_POINT('',#1487);
#493=VERTEX_POINT('',#1488);
#494=VERTEX_POINT('',#1490);
#495=VERTEX_POINT('',#1492);
#496=LINE('',#1282,#628);
#497=LINE('',#1285,#629);
#498=LINE('',#1287,#630);
#499=LINE('',#1289,#631);
#500=LINE('',#1290,#632);
#501=LINE('',#1293,#633);
#502=LINE('',#1295,#634);
#503=LINE('',#1297,#635);
#504=LINE('',#1298,#636);
#505=LINE('',#1301,#637);
#506=LINE('',#1303,#638);
#507=LINE('',#1305,#639);
#508=LINE('',#1307,#640);
#509=LINE('',#1310,#641);
#510=LINE('',#1312,#642);
#511=LINE('',#1314,#643);
#512=LINE('',#1315,#644);
#513=LINE('',#1318,#645);
#514=LINE('',#1320,#646);
#515=LINE('',#1322,#647);
#516=LINE('',#1323,#648);
#517=LINE('',#1326,#649);
#518=LINE('',#1328,#650);
#519=LINE('',#1330,#651);
#520=LINE('',#1332,#652);
#521=LINE('',#1335,#653);
#522=LINE('',#1337,#654);
#523=LINE('',#1339,#655);
#524=LINE('',#1340,#656);
#525=LINE('',#1343,#657);
#526=LINE('',#1345,#658);
#527=LINE('',#1347,#659);
#528=LINE('',#1348,#660);
#529=LINE('',#1351,#661);
#530=LINE('',#1353,#662);
#531=LINE('',#1355,#663);
#532=LINE('',#1357,#664);
#533=LINE('',#1360,#665);
#534=LINE('',#1362,#666);
#535=LINE('',#1364,#667);
#536=LINE('',#1365,#668);
#537=LINE('',#1368,#669);
#538=LINE('',#1370,#670);
#539=LINE('',#1372,#671);
#540=LINE('',#1373,#672);
#541=LINE('',#1376,#673);
#542=LINE('',#1378,#674);
#543=LINE('',#1380,#675);
#544=LINE('',#1382,#676);
#545=LINE('',#1385,#677);
#546=LINE('',#1387,#678);
#547=LINE('',#1389,#679);
#548=LINE('',#1390,#680);
#549=LINE('',#1393,#681);
#550=LINE('',#1395,#682);
#551=LINE('',#1397,#683);
#552=LINE('',#1398,#684);
#553=LINE('',#1401,#685);
#554=LINE('',#1403,#686);
#555=LINE('',#1405,#687);
#556=LINE('',#1407,#688);
#557=LINE('',#1410,#689);
#558=LINE('',#1412,#690);
#559=LINE('',#1414,#691);
#560=LINE('',#1415,#692);
#561=LINE('',#1418,#693);
#562=LINE('',#1420,#694);
#563=LINE('',#1422,#695);
#564=LINE('',#1423,#696);
#565=LINE('',#1426,#697);
#566=LINE('',#1428,#698);
#567=LINE('',#1430,#699);
#568=LINE('',#1432,#700);
#569=LINE('',#1435,#701);
#570=LINE('',#1436,#702);
#571=LINE('',#1437,#703);
#572=LINE('',#1439,#704);
#573=LINE('',#1441,#705);
#574=LINE('',#1443,#706);
#575=LINE('',#1444,#707);
#576=LINE('',#1446,#708);
#577=LINE('',#1448,#709);
#578=LINE('',#1450,#710);
#579=LINE('',#1452,#711);
#580=LINE('',#1454,#712);
#581=LINE('',#1456,#713);
#582=LINE('',#1458,#714);
#583=LINE('',#1460,#715);
#584=LINE('',#1462,#716);
#585=LINE('',#1465,#717);
#586=LINE('',#1466,#718);
#587=LINE('',#1468,#719);
#588=LINE('',#1470,#720);
#589=LINE('',#1471,#721);
#590=LINE('',#1472,#722);
#591=LINE('',#1474,#723);
#592=LINE('',#1476,#724);
#593=LINE('',#1478,#725);
#594=LINE('',#1480,#726);
#595=LINE('',#1483,#727);
#596=LINE('',#1486,#728);
#597=LINE('',#1489,#729);
#598=LINE('',#1491,#730);
#599=LINE('',#1493,#731);
#600=LINE('',#1495,#732);
#601=LINE('',#1496,#733);
#602=LINE('',#1498,#734);
#603=LINE('',#1500,#735);
#604=LINE('',#1503,#736);
#605=LINE('',#1504,#737);
#606=LINE('',#1506,#738);
#607=LINE('',#1508,#739);
#608=LINE('',#1511,#740);
#609=LINE('',#1512,#741);
#610=LINE('',#1514,#742);
#611=LINE('',#1516,#743);
#612=LINE('',#1519,#744);
#613=LINE('',#1520,#745);
#614=LINE('',#1522,#746);
#615=LINE('',#1524,#747);
#616=LINE('',#1527,#748);
#617=LINE('',#1528,#749);
#618=LINE('',#1530,#750);
#619=LINE('',#1532,#751);
#620=LINE('',#1535,#752);
#621=LINE('',#1536,#753);
#622=LINE('',#1538,#754);
#623=LINE('',#1540,#755);
#624=LINE('',#1543,#756);
#625=LINE('',#1544,#757);
#626=LINE('',#1546,#758);
#627=LINE('',#1548,#759);
#628=VECTOR('',#1052,1.);
#629=VECTOR('',#1053,1.);
#630=VECTOR('',#1054,1.);
#631=VECTOR('',#1055,1.);
#632=VECTOR('',#1056,1.);
#633=VECTOR('',#1057,1.);
#634=VECTOR('',#1058,1.);
#635=VECTOR('',#1059,1.);
#636=VECTOR('',#1060,1.);
#637=VECTOR('',#1061,1.);
#638=VECTOR('',#1062,1.);
#639=VECTOR('',#1063,1.);
#640=VECTOR('',#1066,1.);
#641=VECTOR('',#1067,1.);
#642=VECTOR('',#1068,1.);
#643=VECTOR('',#1069,1.);
#644=VECTOR('',#1070,1.);
#645=VECTOR('',#1071,1.);
#646=VECTOR('',#1072,1.);
#647=VECTOR('',#1073,1.);
#648=VECTOR('',#1074,1.);
#649=VECTOR('',#1075,1.);
#650=VECTOR('',#1076,1.);
#651=VECTOR('',#1077,1.);
#652=VECTOR('',#1080,1.);
#653=VECTOR('',#1081,1.);
#654=VECTOR('',#1082,1.);
#655=VECTOR('',#1083,1.);
#656=VECTOR('',#1084,1.);
#657=VECTOR('',#1085,1.);
#658=VECTOR('',#1086,1.);
#659=VECTOR('',#1087,1.);
#660=VECTOR('',#1088,1.);
#661=VECTOR('',#1089,1.);
#662=VECTOR('',#1090,1.);
#663=VECTOR('',#1091,1.);
#664=VECTOR('',#1094,1.);
#665=VECTOR('',#1095,1.);
#666=VECTOR('',#1096,1.);
#667=VECTOR('',#1097,1.);
#668=VECTOR('',#1098,1.);
#669=VECTOR('',#1099,1.);
#670=VECTOR('',#1100,1.);
#671=VECTOR('',#1101,1.);
#672=VECTOR('',#1102,1.);
#673=VECTOR('',#1103,1.);
#674=VECTOR('',#1104,1.);
#675=VECTOR('',#1105,1.);
#676=VECTOR('',#1108,1.);
#677=VECTOR('',#1109,1.);
#678=VECTOR('',#1110,1.);
#679=VECTOR('',#1111,1.);
#680=VECTOR('',#1112,1.);
#681=VECTOR('',#1113,1.);
#682=VECTOR('',#1114,1.);
#683=VECTOR('',#1115,1.);
#684=VECTOR('',#1116,1.);
#685=VECTOR('',#1117,1.);
#686=VECTOR('',#1118,1.);
#687=VECTOR('',#1119,1.);
#688=VECTOR('',#1122,1.);
#689=VECTOR('',#1123,1.);
#690=VECTOR('',#1124,1.);
#691=VECTOR('',#1125,1.);
#692=VECTOR('',#1126,1.);
#693=VECTOR('',#1127,1.);
#694=VECTOR('',#1128,1.);
#695=VECTOR('',#1129,1.);
#696=VECTOR('',#1130,1.);
#697=VECTOR('',#1131,1.);
#698=VECTOR('',#1132,1.);
#699=VECTOR('',#1133,1.);
#700=VECTOR('',#1136,1.);
#701=VECTOR('',#1137,1.);
#702=VECTOR('',#1138,1.);
#703=VECTOR('',#1139,1.);
#704=VECTOR('',#1142,1.);
#705=VECTOR('',#1143,1.);
#706=VECTOR('',#1144,1.);
#707=VECTOR('',#1145,1.);
#708=VECTOR('',#1148,1.);
#709=VECTOR('',#1151,1.);
#710=VECTOR('',#1154,1.);
#711=VECTOR('',#1155,1.);
#712=VECTOR('',#1156,1.);
#713=VECTOR('',#1159,1.);
#714=VECTOR('',#1160,1.);
#715=VECTOR('',#1161,1.);
#716=VECTOR('',#1164,1.);
#717=VECTOR('',#1165,1.);
#718=VECTOR('',#1166,1.);
#719=VECTOR('',#1169,1.);
#720=VECTOR('',#1170,1.);
#721=VECTOR('',#1171,1.);
#722=VECTOR('',#1172,1.);
#723=VECTOR('',#1175,1.);
#724=VECTOR('',#1176,1.);
#725=VECTOR('',#1179,1.);
#726=VECTOR('',#1182,1.);
#727=VECTOR('',#1187,1.);
#728=VECTOR('',#1192,1.);
#729=VECTOR('',#1193,1.);
#730=VECTOR('',#1194,1.);
#731=VECTOR('',#1195,1.);
#732=VECTOR('',#1198,1.);
#733=VECTOR('',#1199,1.);
#734=VECTOR('',#1202,1.);
#735=VECTOR('',#1205,1.);
#736=VECTOR('',#1210,1.);
#737=VECTOR('',#1211,1.);
#738=VECTOR('',#1214,1.);
#739=VECTOR('',#1217,1.);
#740=VECTOR('',#1222,1.);
#741=VECTOR('',#1223,1.);
#742=VECTOR('',#1226,1.);
#743=VECTOR('',#1229,1.);
#744=VECTOR('',#1234,1.);
#745=VECTOR('',#1235,1.);
#746=VECTOR('',#1238,1.);
#747=VECTOR('',#1241,1.);
#748=VECTOR('',#1246,1.);
#749=VECTOR('',#1247,1.);
#750=VECTOR('',#1250,1.);
#751=VECTOR('',#1253,1.);
#752=VECTOR('',#1258,1.);
#753=VECTOR('',#1259,1.);
#754=VECTOR('',#1262,1.);
#755=VECTOR('',#1265,1.);
#756=VECTOR('',#1270,1.);
#757=VECTOR('',#1271,1.);
#758=VECTOR('',#1274,1.);
#759=VECTOR('',#1277,1.);
#760=EDGE_LOOP('',(#12,#13,#14,#15));
#761=EDGE_LOOP('',(#16,#17,#18,#19));
#762=EDGE_LOOP('',(#20,#21,#22,#23));
#763=EDGE_LOOP('',(#24,#25,#26,#27));
#764=EDGE_LOOP('',(#28,#29,#30,#31));
#765=EDGE_LOOP('',(#32,#33,#34,#35));
#766=EDGE_LOOP('',(#36,#37,#38,#39));
#767=EDGE_LOOP('',(#40,#41,#42,#43));
#768=EDGE_LOOP('',(#44,#45,#46,#47));
#769=EDGE_LOOP('',(#48,#49,#50,#51));
#770=EDGE_LOOP('',(#52,#53,#54,#55));
#771=EDGE_LOOP('',(#56,#57,#58,#59));
#772=EDGE_LOOP('',(#60,#61,#62,#63));
#773=EDGE_LOOP('',(#64,#65,#66,#67));
#774=EDGE_LOOP('',(#68,#69,#70,#71));
#775=EDGE_LOOP('',(#72,#73,#74,#75));
#776=EDGE_LOOP('',(#76,#77,#78,#79));
#777=EDGE_LOOP('',(#80,#81,#82,#83));
#778=EDGE_LOOP('',(#84,#85,#86,#87,#88,#89));
#779=EDGE_LOOP('',(#90,#91,#92,#93,#94,#95));
#780=EDGE_LOOP('',(#96,#97,#98,#99));
#781=EDGE_LOOP('',(#100,#101,#102,#103));
#782=EDGE_LOOP('',(#104,#105,#106,#107,#108,#109));
#783=EDGE_LOOP('',(#110,#111,#112,#113,#114,#115));
#784=EDGE_LOOP('',(#116,#117,#118,#119));
#785=EDGE_LOOP('',(#120,#121,#122,#123));
#786=EDGE_LOOP('',(#124,#125,#126,#127));
#787=EDGE_LOOP('',(#128,#129,#130,#131));
#788=EDGE_LOOP('',(#132,#133,#134,#135));
#789=EDGE_LOOP('',(#136,#137,#138,#139));
#790=EDGE_LOOP('',(#140,#141,#142,#143));
#791=EDGE_LOOP('',(#144,#145,#146,#147));
#792=EDGE_LOOP('',(#148,#149,#150,#151));
#793=EDGE_LOOP('',(#152,#153,#154,#155));
#794=EDGE_LOOP('',(#156,#157,#158,#159));
#795=EDGE_LOOP('',(#160,#161,#162,#163));
#796=EDGE_LOOP('',(#164,#165,#166,#167));
#797=EDGE_LOOP('',(#168,#169,#170,#171));
#798=EDGE_LOOP('',(#172,#173,#174,#175));
#799=EDGE_LOOP('',(#176,#177,#178,#179));
#800=EDGE_LOOP('',(#180,#181,#182,#183));
#801=EDGE_LOOP('',(#184,#185,#186,#187));
#802=EDGE_LOOP('',(#188,#189,#190,#191));
#803=EDGE_LOOP('',(#192,#193,#194,#195));
#804=EDGE_LOOP('',(#196,#197,#198,#199));
#805=EDGE_LOOP('',(#200,#201,#202,#203));
#806=EDGE_LOOP('',(#204,#205,#206,#207));
#807=EDGE_LOOP('',(#208,#209,#210,#211));
#808=EDGE_LOOP('',(#212,#213,#214,#215));
#809=EDGE_LOOP('',(#216,#217,#218,#219));
#810=EDGE_LOOP('',(#220,#221,#222,#223));
#811=EDGE_LOOP('',(#224,#225,#226,#227));
#812=EDGE_LOOP('',(#228,#229,#230,#231));
#813=EDGE_LOOP('',(#232,#233,#234,#235));
#814=EDGE_LOOP('',(#236,#237,#238,#239));
#815=EDGE_LOOP('',(#240,#241,#242,#243));
#816=EDGE_LOOP('',(#244,#245,#246,#247));
#817=EDGE_LOOP('',(#248,#249,#250,#251));
#818=EDGE_LOOP('',(#252,#253,#254,#255));
#819=EDGE_LOOP('',(#256,#257,#258,#259));
#820=EDGE_LOOP('',(#260,#261,#262,#263));
#821=EDGE_LOOP('',(#264,#265,#266,#267));
#822=EDGE_LOOP('',(#268,#269,#270,#271));
#823=EDGE_LOOP('',(#272,#273,#274,#275));
#824=FACE_BOUND('',#760,.T.);
#825=FACE_BOUND('',#761,.T.);
#826=FACE_BOUND('',#762,.T.);
#827=FACE_BOUND('',#763,.T.);
#828=FACE_BOUND('',#764,.T.);
#829=FACE_BOUND('',#765,.T.);
#830=FACE_BOUND('',#766,.T.);
#831=FACE_BOUND('',#767,.T.);
#832=FACE_BOUND('',#768,.T.);
#833=FACE_BOUND('',#769,.T.);
#834=FACE_BOUND('',#770,.T.);
#835=FACE_BOUND('',#771,.T.);
#836=FACE_BOUND('',#772,.T.);
#837=FACE_BOUND('',#773,.T.);
#838=FACE_BOUND('',#774,.T.);
#839=FACE_BOUND('',#775,.T.);
#840=FACE_BOUND('',#776,.T.);
#841=FACE_BOUND('',#777,.T.);
#842=FACE_BOUND('',#778,.T.);
#843=FACE_BOUND('',#779,.T.);
#844=FACE_BOUND('',#780,.T.);
#845=FACE_BOUND('',#781,.T.);
#846=FACE_BOUND('',#782,.T.);
#847=FACE_BOUND('',#783,.T.);
#848=FACE_BOUND('',#784,.T.);
#849=FACE_BOUND('',#785,.T.);
#850=FACE_BOUND('',#786,.T.);
#851=FACE_BOUND('',#787,.T.);
#852=FACE_BOUND('',#788,.T.);
#853=FACE_BOUND('',#789,.T.);
#854=FACE_BOUND('',#790,.T.);
#855=FACE_BOUND('',#791,.T.);
#856=FACE_BOUND('',#792,.T.);
#857=FACE_BOUND('',#793,.T.);
#858=FACE_BOUND('',#794,.T.);
#859=FACE_BOUND('',#795,.T.);
#860=FACE_BOUND('',#796,.T.);
#861=FACE_BOUND('',#797,.T.);
#862=FACE_BOUND('',#798,.T.);
#863=FACE_BOUND('',#799,.T.);
#864=FACE_BOUND('',#800,.T.);
#865=FACE_BOUND('',#801,.T.);
#866=FACE_BOUND('',#802,.T.);
#867=FACE_BOUND('',#803,.T.);
#868=FACE_BOUND('',#804,.T.);
#869=FACE_BOUND('',#805,.T.);
#870=FACE_BOUND('',#806,.T.);
#871=FACE_BOUND('',#807,.T.);
#872=FACE_BOUND('',#808,.T.);
#873=FACE_BOUND('',#809,.T.);
#874=FACE_BOUND('',#810,.T.);
#875=FACE_BOUND('',#811,.T.);
#876=FACE_BOUND('',#812,.T.);
#877=FACE_BOUND('',#813,.T.);
#878=FACE_BOUND('',#814,.T.);
#879=FACE_BOUND('',#815,.T.);
#880=FACE_BOUND('',#816,.T.);
#881=FACE_BOUND('',#817,.T.);
#882=FACE_BOUND('',#818,.T.);
#883=FACE_BOUND('',#819,.T.);
#884=FACE_BOUND('',#820,.T.);
#885=FACE_BOUND('',#821,.T.);
#886=FACE_BOUND('',#822,.T.);
#887=FACE_BOUND('',#823,.T.);
#888=PLANE('',#999);
#889=PLANE('',#1000);
#890=PLANE('',#1001);
#891=PLANE('',#1002);
#892=PLANE('',#1003);
#893=PLANE('',#1004);
#894=PLANE('',#1005);
#895=PLANE('',#1006);
#896=PLANE('',#1007);
#897=PLANE('',#1008);
#898=PLANE('',#1009);
#899=PLANE('',#1010);
#900=PLANE('',#1011);
#901=PLANE('',#1012);
#902=PLANE('',#1013);
#903=PLANE('',#1014);
#904=PLANE('',#1015);
#905=PLANE('',#1016);
#906=PLANE('',#1017);
#907=PLANE('',#1018);
#908=PLANE('',#1019);
#909=PLANE('',#1020);
#910=PLANE('',#1021);
#911=PLANE('',#1022);
#912=PLANE('',#1023);
#913=PLANE('',#1024);
#914=PLANE('',#1025);
#915=PLANE('',#1026);
#916=PLANE('',#1027);
#917=PLANE('',#1028);
#918=PLANE('',#1029);
#919=PLANE('',#1030);
#920=PLANE('',#1031);
#921=PLANE('',#1032);
#922=PLANE('',#1033);
#923=PLANE('',#1034);
#924=PLANE('',#1035);
#925=PLANE('',#1036);
#926=PLANE('',#1037);
#927=PLANE('',#1038);
#928=PLANE('',#1039);
#929=PLANE('',#1040);
#930=PLANE('',#1041);
#931=PLANE('',#1042);
#932=PLANE('',#1043);
#933=PLANE('',#1044);
#934=PLANE('',#1045);
#935=PLANE('',#1046);
#936=PLANE('',#1047);
#937=ADVANCED_FACE('',(#824,#825,#826),#888,.T.);
#938=ADVANCED_FACE('',(#827,#828,#829),#889,.T.);
#939=ADVANCED_FACE('',(#830,#831,#832),#890,.T.);
#940=ADVANCED_FACE('',(#833,#834,#835),#891,.F.);
#941=ADVANCED_FACE('',(#836,#837,#838),#892,.F.);
#942=ADVANCED_FACE('',(#839,#840,#841),#893,.F.);
#943=ADVANCED_FACE('',(#842),#894,.F.);
#944=ADVANCED_FACE('',(#843),#895,.F.);
#945=ADVANCED_FACE('',(#844),#896,.F.);
#946=ADVANCED_FACE('',(#845),#897,.F.);
#947=ADVANCED_FACE('',(#846),#898,.T.);
#948=ADVANCED_FACE('',(#847),#899,.T.);
#949=ADVANCED_FACE('',(#848),#900,.T.);
#950=ADVANCED_FACE('',(#849,#850,#851),#901,.F.);
#951=ADVANCED_FACE('',(#852),#902,.F.);
#952=ADVANCED_FACE('',(#853),#903,.T.);
#953=ADVANCED_FACE('',(#854),#904,.T.);
#954=ADVANCED_FACE('',(#855),#905,.T.);
#955=ADVANCED_FACE('',(#856),#906,.T.);
#956=ADVANCED_FACE('',(#857),#907,.T.);
#957=ADVANCED_FACE('',(#858,#859),#908,.F.);
#958=ADVANCED_FACE('',(#860),#909,.T.);
#959=ADVANCED_FACE('',(#861),#910,.T.);
#960=ADVANCED_FACE('',(#862),#911,.F.);
#961=ADVANCED_FACE('',(#863),#912,.F.);
#962=ADVANCED_FACE('',(#864),#913,.T.);
#963=ADVANCED_FACE('',(#865),#914,.F.);
#964=ADVANCED_FACE('',(#866),#915,.F.);
#965=ADVANCED_FACE('',(#867),#916,.T.);
#966=ADVANCED_FACE('',(#868),#917,.T.);
#967=ADVANCED_FACE('',(#869),#918,.F.);
#968=ADVANCED_FACE('',(#870),#919,.F.);
#969=ADVANCED_FACE('',(#871),#920,.T.);
#970=ADVANCED_FACE('',(#872),#921,.T.);
#971=ADVANCED_FACE('',(#873),#922,.F.);
#972=ADVANCED_FACE('',(#874),#923,.F.);
#973=ADVANCED_FACE('',(#875),#924,.T.);
#974=ADVANCED_FACE('',(#876),#925,.T.);
#975=ADVANCED_FACE('',(#877),#926,.F.);
#976=ADVANCED_FACE('',(#878),#927,.F.);
#977=ADVANCED_FACE('',(#879),#928,.T.);
#978=ADVANCED_FACE('',(#880),#929,.T.);
#979=ADVANCED_FACE('',(#881),#930,.F.);
#980=ADVANCED_FACE('',(#882),#931,.F.);
#981=ADVANCED_FACE('',(#883),#932,.T.);
#982=ADVANCED_FACE('',(#884),#933,.T.);
#983=ADVANCED_FACE('',(#885),#934,.F.);
#984=ADVANCED_FACE('',(#886),#935,.F.);
#985=ADVANCED_FACE('',(#887),#936,.T.);
#986=CLOSED_SHELL('',(#937,#938,#939,#940,#941,#942,#943,#944,#945,#946,
#947,#948,#949,#950,#951,#952,#953,#954,#955,#956,#957,#958,#959,#960,#961,
#962,#963,#964,#965,#966,#967,#968,#969,#970,#971,#972,#973,#974,#975,#976,
#977,#978,#979,#980,#981,#982,#983,#984,#985));
#987=STYLED_ITEM('',(#988),#995);
#988=PRESENTATION_STYLE_ASSIGNMENT((#989));
#989=SURFACE_STYLE_USAGE(.BOTH.,#990);
#990=SURFACE_SIDE_STYLE('',(#991));
#991=SURFACE_STYLE_FILL_AREA(#992);
#992=FILL_AREA_STYLE('',(#993));
#993=FILL_AREA_STYLE_COLOUR('',#994);
#994=COLOUR_RGB('',0.615686274509804,0.811764705882353,0.929411764705882);
#995=MANIFOLD_SOLID_BREP('Part 1',#986);
#996=SHAPE_DEFINITION_REPRESENTATION(#1556,#997);
#997=SHAPE_REPRESENTATION('Part 1',(#998),#1551);
#998=AXIS2_PLACEMENT_3D('',#1280,#1048,#1049);
#999=AXIS2_PLACEMENT_3D('',#1281,#1050,#1051);
#1000=AXIS2_PLACEMENT_3D('',#1306,#1064,#1065);
#1001=AXIS2_PLACEMENT_3D('',#1331,#1078,#1079);
#1002=AXIS2_PLACEMENT_3D('',#1356,#1092,#1093);
#1003=AXIS2_PLACEMENT_3D('',#1381,#1106,#1107);
#1004=AXIS2_PLACEMENT_3D('',#1406,#1120,#1121);
#1005=AXIS2_PLACEMENT_3D('',#1431,#1134,#1135);
#1006=AXIS2_PLACEMENT_3D('',#1438,#1140,#1141);
#1007=AXIS2_PLACEMENT_3D('',#1445,#1146,#1147);
#1008=AXIS2_PLACEMENT_3D('',#1447,#1149,#1150);
#1009=AXIS2_PLACEMENT_3D('',#1449,#1152,#1153);
#1010=AXIS2_PLACEMENT_3D('',#1455,#1157,#1158);
#1011=AXIS2_PLACEMENT_3D('',#1461,#1162,#1163);
#1012=AXIS2_PLACEMENT_3D('',#1467,#1167,#1168);
#1013=AXIS2_PLACEMENT_3D('',#1473,#1173,#1174);
#1014=AXIS2_PLACEMENT_3D('',#1477,#1177,#1178);
#1015=AXIS2_PLACEMENT_3D('',#1479,#1180,#1181);
#1016=AXIS2_PLACEMENT_3D('',#1481,#1183,#1184);
#1017=AXIS2_PLACEMENT_3D('',#1482,#1185,#1186);
#1018=AXIS2_PLACEMENT_3D('',#1484,#1188,#1189);
#1019=AXIS2_PLACEMENT_3D('',#1485,#1190,#1191);
#1020=AXIS2_PLACEMENT_3D('',#1494,#1196,#1197);
#1021=AXIS2_PLACEMENT_3D('',#1497,#1200,#1201);
#1022=AXIS2_PLACEMENT_3D('',#1499,#1203,#1204);
#1023=AXIS2_PLACEMENT_3D('',#1501,#1206,#1207);
#1024=AXIS2_PLACEMENT_3D('',#1502,#1208,#1209);
#1025=AXIS2_PLACEMENT_3D('',#1505,#1212,#1213);
#1026=AXIS2_PLACEMENT_3D('',#1507,#1215,#1216);
#1027=AXIS2_PLACEMENT_3D('',#1509,#1218,#1219);
#1028=AXIS2_PLACEMENT_3D('',#1510,#1220,#1221);
#1029=AXIS2_PLACEMENT_3D('',#1513,#1224,#1225);
#1030=AXIS2_PLACEMENT_3D('',#1515,#1227,#1228);
#1031=AXIS2_PLACEMENT_3D('',#1517,#1230,#1231);
#1032=AXIS2_PLACEMENT_3D('',#1518,#1232,#1233);
#1033=AXIS2_PLACEMENT_3D('',#1521,#1236,#1237);
#1034=AXIS2_PLACEMENT_3D('',#1523,#1239,#1240);
#1035=AXIS2_PLACEMENT_3D('',#1525,#1242,#1243);
#1036=AXIS2_PLACEMENT_3D('',#1526,#1244,#1245);
#1037=AXIS2_PLACEMENT_3D('',#1529,#1248,#1249);
#1038=AXIS2_PLACEMENT_3D('',#1531,#1251,#1252);
#1039=AXIS2_PLACEMENT_3D('',#1533,#1254,#1255);
#1040=AXIS2_PLACEMENT_3D('',#1534,#1256,#1257);
#1041=AXIS2_PLACEMENT_3D('',#1537,#1260,#1261);
#1042=AXIS2_PLACEMENT_3D('',#1539,#1263,#1264);
#1043=AXIS2_PLACEMENT_3D('',#1541,#1266,#1267);
#1044=AXIS2_PLACEMENT_3D('',#1542,#1268,#1269);
#1045=AXIS2_PLACEMENT_3D('',#1545,#1272,#1273);
#1046=AXIS2_PLACEMENT_3D('',#1547,#1275,#1276);
#1047=AXIS2_PLACEMENT_3D('',#1549,#1278,#1279);
#1048=DIRECTION('',(0.,0.,1.));
#1049=DIRECTION('',(1.,0.,0.));
#1050=DIRECTION('',(-1.98679854084673E-16,0.,1.));
#1051=DIRECTION('',(1.,0.,1.98679854084673E-16));
#1052=DIRECTION('',(0.,1.,0.));
#1053=DIRECTION('',(1.,-3.10437272007303E-18,1.98679854084673E-16));
#1054=DIRECTION('',(0.,1.,0.));
#1055=DIRECTION('',(1.,0.,1.98679854084673E-16));
#1056=DIRECTION('',(0.,-1.,0.));
#1057=DIRECTION('',(1.,0.,1.98679854084673E-16));
#1058=DIRECTION('',(0.,-1.,0.));
#1059=DIRECTION('',(1.,0.,1.98679854084673E-16));
#1060=DIRECTION('',(0.,-1.,0.));
#1061=DIRECTION('',(1.,0.,1.98679854084673E-16));
#1062=DIRECTION('',(0.,-1.,0.));
#1063=DIRECTION('',(1.,0.,1.98679854084673E-16));
#1064=DIRECTION('',(-1.98679854084673E-16,0.,1.));
#1065=DIRECTION('',(1.,0.,1.98679854084673E-16));
#1066=DIRECTION('',(0.,1.,0.));
#1067=DIRECTION('',(1.,-3.10437272007303E-18,1.98679854084673E-16));
#1068=DIRECTION('',(0.,1.,0.));
#1069=DIRECTION('',(1.,0.,1.98679854084673E-16));
#1070=DIRECTION('',(0.,-1.,0.));
#1071=DIRECTION('',(1.,0.,1.98679854084673E-16));
#1072=DIRECTION('',(0.,-1.,0.));
#1073=DIRECTION('',(1.,0.,1.98679854084673E-16));
#1074=DIRECTION('',(0.,-1.,0.));
#1075=DIRECTION('',(1.,0.,1.98679854084673E-16));
#1076=DIRECTION('',(0.,-1.,0.));
#1077=DIRECTION('',(1.,0.,1.98679854084673E-16));
#1078=DIRECTION('',(0.,0.,1.));
#1079=DIRECTION('',(1.,0.,0.));
#1080=DIRECTION('',(0.,-1.,0.));
#1081=DIRECTION('',(1.,0.,0.));
#1082=DIRECTION('',(0.,-1.,0.));
#1083=DIRECTION('',(-1.,0.,0.));
#1084=DIRECTION('',(0.,-1.,0.));
#1085=DIRECTION('',(1.,0.,0.));
#1086=DIRECTION('',(0.,-1.,0.));
#1087=DIRECTION('',(1.,0.,0.));
#1088=DIRECTION('',(0.,-1.,0.));
#1089=DIRECTION('',(1.,0.,0.));
#1090=DIRECTION('',(0.,-1.,0.));
#1091=DIRECTION('',(1.,0.,0.));
#1092=DIRECTION('',(0.,0.,1.));
#1093=DIRECTION('',(1.,0.,0.));
#1094=DIRECTION('',(1.,0.,0.));
#1095=DIRECTION('',(0.,-1.,0.));
#1096=DIRECTION('',(1.,0.,0.));
#1097=DIRECTION('',(0.,-1.,0.));
#1098=DIRECTION('',(-1.83874384188941E-16,1.,0.));
#1099=DIRECTION('',(1.,0.,0.));
#1100=DIRECTION('',(0.,1.,0.));
#1101=DIRECTION('',(1.,0.,0.));
#1102=DIRECTION('',(1.,0.,0.));
#1103=DIRECTION('',(0.,-1.,0.));
#1104=DIRECTION('',(1.,0.,0.));
#1105=DIRECTION('',(0.,-1.,0.));
#1106=DIRECTION('',(-1.98679854084673E-16,0.,1.));
#1107=DIRECTION('',(1.,0.,1.98679854084673E-16));
#1108=DIRECTION('',(1.,0.,1.98679854084673E-16));
#1109=DIRECTION('',(0.,-1.,0.));
#1110=DIRECTION('',(1.,0.,1.98679854084673E-16));
#1111=DIRECTION('',(0.,-1.,0.));
#1112=DIRECTION('',(1.,0.,1.98679854084673E-16));
#1113=DIRECTION('',(0.,1.,0.));
#1114=DIRECTION('',(1.,0.,1.98679854084673E-16));
#1115=DIRECTION('',(0.,1.,0.));
#1116=DIRECTION('',(1.,0.,1.98679854084673E-16));
#1117=DIRECTION('',(0.,-1.,0.));
#1118=DIRECTION('',(1.,0.,1.98679854084673E-16));
#1119=DIRECTION('',(0.,-1.,0.));
#1120=DIRECTION('',(-1.98679854084673E-16,0.,1.));
#1121=DIRECTION('',(1.,0.,1.98679854084673E-16));
#1122=DIRECTION('',(1.,0.,1.98679854084673E-16));
#1123=DIRECTION('',(0.,-1.,0.));
#1124=DIRECTION('',(1.,0.,1.98679854084673E-16));
#1125=DIRECTION('',(0.,-1.,0.));
#1126=DIRECTION('',(1.,0.,1.98679854084673E-16));
#1127=DIRECTION('',(0.,1.,0.));
#1128=DIRECTION('',(1.,0.,1.98679854084673E-16));
#1129=DIRECTION('',(0.,1.,0.));
#1130=DIRECTION('',(1.,0.,1.98679854084673E-16));
#1131=DIRECTION('',(0.,-1.,0.));
#1132=DIRECTION('',(1.,0.,1.98679854084673E-16));
#1133=DIRECTION('',(0.,-1.,0.));
#1134=DIRECTION('',(-1.,0.,0.));
#1135=DIRECTION('',(0.,0.,1.));
#1136=DIRECTION('',(0.,-1.,0.));
#1137=DIRECTION('',(0.,0.,-1.));
#1138=DIRECTION('',(0.,0.,-1.));
#1139=DIRECTION('',(0.,0.,-1.));
#1140=DIRECTION('',(-1.,0.,0.));
#1141=DIRECTION('',(0.,0.,1.));
#1142=DIRECTION('',(0.,0.,-1.));
#1143=DIRECTION('',(0.,1.,0.));
#1144=DIRECTION('',(1.98679854084673E-16,0.,-1.));
#1145=DIRECTION('',(0.,0.,-1.));
#1146=DIRECTION('',(0.,1.,0.));
#1147=DIRECTION('',(0.,0.,1.));
#1148=DIRECTION('',(0.,0.,-1.));
#1149=DIRECTION('',(0.,1.,0.));
#1150=DIRECTION('',(0.,0.,1.));
#1151=DIRECTION('',(0.,0.,-1.));
#1152=DIRECTION('',(-1.,0.,0.));
#1153=DIRECTION('',(0.,0.,1.));
#1154=DIRECTION('',(0.,0.,-1.));
#1155=DIRECTION('',(0.,-1.,0.));
#1156=DIRECTION('',(0.,0.,-1.));
#1157=DIRECTION('',(-1.,0.,0.));
#1158=DIRECTION('',(0.,0.,1.));
#1159=DIRECTION('',(1.98679854084673E-16,0.,-1.));
#1160=DIRECTION('',(0.,1.,0.));
#1161=DIRECTION('',(0.,0.,-1.));
#1162=DIRECTION('',(-1.,-1.8387438418894E-16,0.));
#1163=DIRECTION('',(1.83874384188941E-16,-1.,0.));
#1164=DIRECTION('',(1.83874384188941E-16,-1.,3.36227445374063E-16));
#1165=DIRECTION('',(0.,0.,-1.));
#1166=DIRECTION('',(0.,0.,-1.));
#1167=DIRECTION('',(0.,1.,0.));
#1168=DIRECTION('',(0.,0.,1.));
#1169=DIRECTION('',(0.,0.,-1.));
#1170=DIRECTION('',(-1.,-1.83874384188941E-16,0.));
#1171=DIRECTION('',(-1.,0.,0.));
#1172=DIRECTION('',(1.,0.,1.98679854084673E-16));
#1173=DIRECTION('',(-1.,0.,0.));
#1174=DIRECTION('',(0.,0.,1.));
#1175=DIRECTION('',(0.,0.,-1.));
#1176=DIRECTION('',(0.,-1.,3.36227445374063E-16));
#1177=DIRECTION('',(0.,1.,0.));
#1178=DIRECTION('',(0.,0.,1.));
#1179=DIRECTION('',(-1.,-1.83874384188941E-16,0.));
#1180=DIRECTION('',(0.,1.,0.));
#1181=DIRECTION('',(0.,0.,1.));
#1182=DIRECTION('',(1.,0.,0.));
#1183=DIRECTION('',(0.,0.,1.));
#1184=DIRECTION('',(1.,0.,0.));
#1185=DIRECTION('',(3.10437272007303E-18,1.,6.1677631904855E-34));
#1186=DIRECTION('',(-1.,3.10437272007303E-18,0.));
#1187=DIRECTION('',(1.,-3.10437272007303E-18,1.98679854084673E-16));
#1188=DIRECTION('',(-1.98679854084673E-16,0.,1.));
#1189=DIRECTION('',(1.,0.,1.98679854084673E-16));
#1190=DIRECTION('',(6.18236144655766E-32,-3.36227445374063E-16,-1.));
#1191=DIRECTION('',(0.,1.,-3.36227445374063E-16));
#1192=DIRECTION('',(-1.,0.,-6.18236144655766E-32));
#1193=DIRECTION('',(0.,-1.,3.36227445374063E-16));
#1194=DIRECTION('',(-1.,3.10437272007303E-18,-6.28673897747357E-32));
#1195=DIRECTION('',(0.,-1.,3.36227445374063E-16));
#1196=DIRECTION('',(3.10437272007303E-18,1.,6.1677631904855E-34));
#1197=DIRECTION('',(-1.,3.10437272007303E-18,0.));
#1198=DIRECTION('',(1.98679854084673E-16,0.,-1.));
#1199=DIRECTION('',(1.98679854084673E-16,0.,-1.));
#1200=DIRECTION('',(-1.,0.,0.));
#1201=DIRECTION('',(0.,0.,1.));
#1202=DIRECTION('',(0.,0.,-1.));
#1203=DIRECTION('',(0.,1.,0.));
#1204=DIRECTION('',(0.,0.,1.));
#1205=DIRECTION('',(0.,0.,-1.));
#1206=DIRECTION('',(-1.,0.,0.));
#1207=DIRECTION('',(0.,0.,1.));
#1208=DIRECTION('',(-1.,0.,-1.98679854084673E-16));
#1209=DIRECTION('',(-1.98679854084673E-16,0.,1.));
#1210=DIRECTION('',(-1.98679854084673E-16,0.,1.));
#1211=DIRECTION('',(-1.98679854084673E-16,0.,1.));
#1212=DIRECTION('',(0.,-1.,0.));
#1213=DIRECTION('',(0.,0.,-1.));
#1214=DIRECTION('',(-1.98679854084673E-16,0.,1.));
#1215=DIRECTION('',(-1.,0.,-1.98679854084673E-16));
#1216=DIRECTION('',(-1.98679854084673E-16,0.,1.));
#1217=DIRECTION('',(-1.98679854084673E-16,0.,1.));
#1218=DIRECTION('',(0.,-1.,0.));
#1219=DIRECTION('',(0.,0.,-1.));
#1220=DIRECTION('',(-1.,0.,-1.98679854084673E-16));
#1221=DIRECTION('',(-1.98679854084673E-16,0.,1.));
#1222=DIRECTION('',(-1.98679854084673E-16,0.,1.));
#1223=DIRECTION('',(-1.98679854084673E-16,0.,1.));
#1224=DIRECTION('',(0.,-1.,0.));
#1225=DIRECTION('',(0.,0.,-1.));
#1226=DIRECTION('',(-1.98679854084673E-16,0.,1.));
#1227=DIRECTION('',(-1.,0.,-1.98679854084673E-16));
#1228=DIRECTION('',(-1.98679854084673E-16,0.,1.));
#1229=DIRECTION('',(-1.98679854084673E-16,0.,1.));
#1230=DIRECTION('',(0.,-1.,0.));
#1231=DIRECTION('',(0.,0.,-1.));
#1232=DIRECTION('',(-1.,0.,-1.98679854084673E-16));
#1233=DIRECTION('',(-1.98679854084673E-16,0.,1.));
#1234=DIRECTION('',(-1.98679854084673E-16,0.,1.));
#1235=DIRECTION('',(-1.98679854084673E-16,0.,1.));
#1236=DIRECTION('',(0.,-1.,0.));
#1237=DIRECTION('',(0.,0.,-1.));
#1238=DIRECTION('',(-1.98679854084673E-16,0.,1.));
#1239=DIRECTION('',(-1.,0.,-1.98679854084673E-16));
#1240=DIRECTION('',(-1.98679854084673E-16,0.,1.));
#1241=DIRECTION('',(-1.98679854084673E-16,0.,1.));
#1242=DIRECTION('',(0.,-1.,0.));
#1243=DIRECTION('',(0.,0.,-1.));
#1244=DIRECTION('',(-1.,0.,-1.98679854084673E-16));
#1245=DIRECTION('',(-1.98679854084673E-16,0.,1.));
#1246=DIRECTION('',(-1.98679854084673E-16,0.,1.));
#1247=DIRECTION('',(-1.98679854084673E-16,0.,1.));
#1248=DIRECTION('',(0.,-1.,0.));
#1249=DIRECTION('',(0.,0.,-1.));
#1250=DIRECTION('',(-1.98679854084673E-16,0.,1.));
#1251=DIRECTION('',(-1.,0.,-1.98679854084673E-16));
#1252=DIRECTION('',(-1.98679854084673E-16,0.,1.));
#1253=DIRECTION('',(-1.98679854084673E-16,0.,1.));
#1254=DIRECTION('',(0.,-1.,0.));
#1255=DIRECTION('',(0.,0.,-1.));
#1256=DIRECTION('',(0.,-1.,0.));
#1257=DIRECTION('',(0.,0.,-1.));
#1258=DIRECTION('',(-1.98679854084673E-16,0.,1.));
#1259=DIRECTION('',(-1.98679854084673E-16,0.,1.));
#1260=DIRECTION('',(-1.,0.,-1.98679854084673E-16));
#1261=DIRECTION('',(-1.98679854084673E-16,0.,1.));
#1262=DIRECTION('',(-1.98679854084673E-16,0.,1.));
#1263=DIRECTION('',(0.,-1.,0.));
#1264=DIRECTION('',(0.,0.,-1.));
#1265=DIRECTION('',(-1.98679854084673E-16,0.,1.));
#1266=DIRECTION('',(-1.,0.,-1.98679854084673E-16));
#1267=DIRECTION('',(-1.98679854084673E-16,0.,1.));
#1268=DIRECTION('',(0.,-1.,0.));
#1269=DIRECTION('',(0.,0.,-1.));
#1270=DIRECTION('',(-1.98679854084673E-16,0.,1.));
#1271=DIRECTION('',(-1.98679854084673E-16,0.,1.));
#1272=DIRECTION('',(-1.,0.,-1.98679854084673E-16));
#1273=DIRECTION('',(-1.98679854084673E-16,0.,1.));
#1274=DIRECTION('',(-1.98679854084673E-16,0.,1.));
#1275=DIRECTION('',(0.,-1.,0.));
#1276=DIRECTION('',(0.,0.,-1.));
#1277=DIRECTION('',(-1.98679854084673E-16,0.,1.));
#1278=DIRECTION('',(-1.,0.,-1.98679854084673E-16));
#1279=DIRECTION('',(-1.98679854084673E-16,0.,1.));
#1280=CARTESIAN_POINT('',(0.,0.,0.));
#1281=CARTESIAN_POINT('',(0.06985,-0.003175,0.098425));
#1282=CARTESIAN_POINT('',(-1.38777878078145E-17,-0.003175,0.098425));
#1283=CARTESIAN_POINT('',(-1.38777878078145E-17,2.16840434497101E-19,0.098425));
#1284=CARTESIAN_POINT('',(-1.38777878078145E-17,0.0762,0.098425));
#1285=CARTESIAN_POINT('',(0.06985,-2.16840434497101E-19,0.098425));
#1286=CARTESIAN_POINT('',(0.1397,-8.67361737988404E-19,0.098425));
#1287=CARTESIAN_POINT('',(0.1397,-0.003175,0.098425));
#1288=CARTESIAN_POINT('',(0.1397,0.0762,0.098425));
#1289=CARTESIAN_POINT('',(0.06985,0.0762,0.098425));
#1290=CARTESIAN_POINT('',(0.0270771418646949,0.00605408392253518,0.098425));
#1291=CARTESIAN_POINT('',(0.0270771418646949,0.00924858228641749,0.098425));
#1292=CARTESIAN_POINT('',(0.0270771418646949,0.00285958555865288,0.098425));
#1293=CARTESIAN_POINT('',(0.0697111508473395,0.00924858228641749,0.098425));
#1294=CARTESIAN_POINT('',(0.112345159829984,0.00924858228641749,0.098425));
#1295=CARTESIAN_POINT('',(0.112345159829984,0.00605408392253518,0.098425));
#1296=CARTESIAN_POINT('',(0.112345159829984,0.00285958555865288,0.098425));
#1297=CARTESIAN_POINT('',(0.0697111508473395,0.00285958555865288,0.098425));
#1298=CARTESIAN_POINT('',(0.026942733887814,0.0710170641541481,0.098425));
#1299=CARTESIAN_POINT('',(0.026942733887814,0.0740119069814682,0.098425));
#1300=CARTESIAN_POINT('',(0.026942733887814,0.068022221326828,0.098425));
#1301=CARTESIAN_POINT('',(0.0695767428704585,0.0740119069814682,0.098425));
#1302=CARTESIAN_POINT('',(0.112210751853103,0.0740119069814682,0.098425));
#1303=CARTESIAN_POINT('',(0.112210751853103,0.0710170641541481,0.098425));
#1304=CARTESIAN_POINT('',(0.112210751853103,0.068022221326828,0.098425));
#1305=CARTESIAN_POINT('',(0.0695767428704585,0.068022221326828,0.098425));
#1306=CARTESIAN_POINT('',(0.06985,-0.003175,0.0508));
#1307=CARTESIAN_POINT('',(-1.38777878078145E-17,-0.003175,0.0508));
#1308=CARTESIAN_POINT('',(-1.38777878078145E-17,2.16840434497101E-19,0.0508));
#1309=CARTESIAN_POINT('',(-1.38777878078145E-17,0.0762,0.0508));
#1310=CARTESIAN_POINT('',(0.06985,-2.16840434497101E-19,0.0508));
#1311=CARTESIAN_POINT('',(0.1397,-8.67361737988404E-19,0.0508));
#1312=CARTESIAN_POINT('',(0.1397,-0.003175,0.0508));
#1313=CARTESIAN_POINT('',(0.1397,0.0762,0.0508));
#1314=CARTESIAN_POINT('',(0.06985,0.0762,0.0508));
#1315=CARTESIAN_POINT('',(0.0270771418646949,-0.003175,0.0508));
#1316=CARTESIAN_POINT('',(0.0270771418646949,0.00924858228641749,0.0508));
#1317=CARTESIAN_POINT('',(0.0270771418646949,0.00285958555865288,0.0508));
#1318=CARTESIAN_POINT('',(0.06985,0.00924858228641749,0.0508));
#1319=CARTESIAN_POINT('',(0.112345159829984,0.00924858228641749,0.0508));
#1320=CARTESIAN_POINT('',(0.112345159829984,-0.003175,0.0508));
#1321=CARTESIAN_POINT('',(0.112345159829984,0.00285958555865288,0.0508));
#1322=CARTESIAN_POINT('',(0.06985,0.00285958555865288,0.0508));
#1323=CARTESIAN_POINT('',(0.026942733887814,-0.003175,0.0508));
#1324=CARTESIAN_POINT('',(0.026942733887814,0.0740119069814682,0.0508));
#1325=CARTESIAN_POINT('',(0.026942733887814,0.068022221326828,0.0508));
#1326=CARTESIAN_POINT('',(0.06985,0.0740119069814682,0.0508));
#1327=CARTESIAN_POINT('',(0.112210751853103,0.0740119069814682,0.0508));
#1328=CARTESIAN_POINT('',(0.112210751853103,-0.003175,0.0508));
#1329=CARTESIAN_POINT('',(0.112210751853103,0.068022221326828,0.0508));
#1330=CARTESIAN_POINT('',(0.06985,0.068022221326828,0.0508));
#1331=CARTESIAN_POINT('',(0.06985,0.0381,0.003175));
#1332=CARTESIAN_POINT('',(0.,0.0381,0.003175));
#1333=CARTESIAN_POINT('',(-1.38777878078145E-17,0.0762,0.003175));
#1334=CARTESIAN_POINT('',(0.,0.,0.003175));
#1335=CARTESIAN_POINT('',(0.06985,0.,0.003175));
#1336=CARTESIAN_POINT('',(0.1397,0.,0.003175));
#1337=CARTESIAN_POINT('',(0.1397,0.0381,0.003175));
#1338=CARTESIAN_POINT('',(0.1397,0.0762,0.003175));
#1339=CARTESIAN_POINT('',(0.06985,0.0762,0.003175));
#1340=CARTESIAN_POINT('',(0.0270771418646949,0.0381,0.003175));
#1341=CARTESIAN_POINT('',(0.0270771418646949,0.00924858228641749,0.003175));
#1342=CARTESIAN_POINT('',(0.0270771418646949,0.00285958555865288,0.003175));
#1343=CARTESIAN_POINT('',(0.06985,0.00924858228641749,0.003175));
#1344=CARTESIAN_POINT('',(0.112345159829984,0.00924858228641749,0.003175));
#1345=CARTESIAN_POINT('',(0.112345159829984,0.0381,0.003175));
#1346=CARTESIAN_POINT('',(0.112345159829984,0.00285958555865288,0.003175));
#1347=CARTESIAN_POINT('',(0.06985,0.00285958555865288,0.003175));
#1348=CARTESIAN_POINT('',(0.026942733887814,0.0381,0.003175));
#1349=CARTESIAN_POINT('',(0.026942733887814,0.0740119069814682,0.003175));
#1350=CARTESIAN_POINT('',(0.026942733887814,0.068022221326828,0.003175));
#1351=CARTESIAN_POINT('',(0.06985,0.0740119069814682,0.003175));
#1352=CARTESIAN_POINT('',(0.112210751853103,0.0740119069814682,0.003175));
#1353=CARTESIAN_POINT('',(0.112210751853103,0.0381,0.003175));
#1354=CARTESIAN_POINT('',(0.112210751853103,0.068022221326828,0.003175));
#1355=CARTESIAN_POINT('',(0.06985,0.068022221326828,0.003175));
#1356=CARTESIAN_POINT('',(0.06985,0.0381,0.));
#1357=CARTESIAN_POINT('',(0.06985,0.00924858228641749,0.));
#1358=CARTESIAN_POINT('',(0.0270771418646949,0.00924858228641749,0.));
#1359=CARTESIAN_POINT('',(0.112345159829984,0.00924858228641749,0.));
#1360=CARTESIAN_POINT('',(0.027077141864695,0.0381,0.));
#1361=CARTESIAN_POINT('',(0.0270771418646949,0.00285958555865288,0.));
#1362=CARTESIAN_POINT('',(0.06985,0.00285958555865288,0.));
#1363=CARTESIAN_POINT('',(0.112345159829984,0.00285958555865288,0.));
#1364=CARTESIAN_POINT('',(0.112345159829984,0.0381,0.));
#1365=CARTESIAN_POINT('',(-0.003175,0.0381,0.));
#1366=CARTESIAN_POINT('',(-0.003175,-0.003175,0.));
#1367=CARTESIAN_POINT('',(-0.003175,0.079375,0.));
#1368=CARTESIAN_POINT('',(0.06985,0.079375,0.));
#1369=CARTESIAN_POINT('',(0.142875,0.079375,0.));
#1370=CARTESIAN_POINT('',(0.142875,0.0381,0.));
#1371=CARTESIAN_POINT('',(0.142875,-0.003175,0.));
#1372=CARTESIAN_POINT('',(0.06985,-0.003175,0.));
#1373=CARTESIAN_POINT('',(0.06985,0.0740119069814682,0.));
#1374=CARTESIAN_POINT('',(0.026942733887814,0.0740119069814682,0.));
#1375=CARTESIAN_POINT('',(0.112210751853103,0.0740119069814682,0.));
#1376=CARTESIAN_POINT('',(0.026942733887814,0.0381,0.));
#1377=CARTESIAN_POINT('',(0.026942733887814,0.068022221326828,0.));
#1378=CARTESIAN_POINT('',(0.06985,0.068022221326828,0.));
#1379=CARTESIAN_POINT('',(0.112210751853103,0.068022221326828,0.));
#1380=CARTESIAN_POINT('',(0.112210751853103,0.0381,0.));
#1381=CARTESIAN_POINT('',(0.06985,-0.003175,0.09525));
#1382=CARTESIAN_POINT('',(0.06985,0.00924858228641749,0.09525));
#1383=CARTESIAN_POINT('',(0.0270771418646949,0.00924858228641749,0.09525));
#1384=CARTESIAN_POINT('',(0.112345159829984,0.00924858228641749,0.09525));
#1385=CARTESIAN_POINT('',(0.0270771418646949,-0.003175,0.09525));
#1386=CARTESIAN_POINT('',(0.0270771418646949,0.00285958555865288,0.09525));
#1387=CARTESIAN_POINT('',(0.06985,0.00285958555865288,0.09525));
#1388=CARTESIAN_POINT('',(0.112345159829984,0.00285958555865288,0.09525));
#1389=CARTESIAN_POINT('',(0.112345159829984,-0.003175,0.09525));
#1390=CARTESIAN_POINT('',(0.06985,0.0762,0.09525));
#1391=CARTESIAN_POINT('',(-1.38777878078145E-17,0.0762,0.09525));
#1392=CARTESIAN_POINT('',(0.1397,0.0762,0.09525));
#1393=CARTESIAN_POINT('',(0.1397,-0.003175,0.09525));
#1394=CARTESIAN_POINT('',(0.1397,-0.003175,0.09525));
#1395=CARTESIAN_POINT('',(0.06985,-0.003175,0.09525));
#1396=CARTESIAN_POINT('',(-1.38777878078145E-17,-0.003175,0.09525));
#1397=CARTESIAN_POINT('',(-1.38777878078145E-17,-0.003175,0.09525));
#1398=CARTESIAN_POINT('',(0.06985,0.0740119069814682,0.09525));
#1399=CARTESIAN_POINT('',(0.026942733887814,0.0740119069814682,0.09525));
#1400=CARTESIAN_POINT('',(0.112210751853103,0.0740119069814682,0.09525));
#1401=CARTESIAN_POINT('',(0.026942733887814,-0.003175,0.09525));
#1402=CARTESIAN_POINT('',(0.026942733887814,0.068022221326828,0.09525));
#1403=CARTESIAN_POINT('',(0.06985,0.068022221326828,0.09525));
#1404=CARTESIAN_POINT('',(0.112210751853103,0.068022221326828,0.09525));
#1405=CARTESIAN_POINT('',(0.112210751853103,-0.003175,0.09525));
#1406=CARTESIAN_POINT('',(0.06985,-0.003175,0.047625));
#1407=CARTESIAN_POINT('',(0.06985,0.00924858228641749,0.047625));
#1408=CARTESIAN_POINT('',(0.0270771418646949,0.00924858228641749,0.047625));
#1409=CARTESIAN_POINT('',(0.112345159829984,0.00924858228641749,0.047625));
#1410=CARTESIAN_POINT('',(0.0270771418646949,-0.003175,0.047625));
#1411=CARTESIAN_POINT('',(0.0270771418646949,0.00285958555865288,0.047625));
#1412=CARTESIAN_POINT('',(0.06985,0.00285958555865288,0.047625));
#1413=CARTESIAN_POINT('',(0.112345159829984,0.00285958555865288,0.047625));
#1414=CARTESIAN_POINT('',(0.112345159829984,-0.003175,0.047625));
#1415=CARTESIAN_POINT('',(0.06985,0.0762,0.047625));
#1416=CARTESIAN_POINT('',(-1.38777878078145E-17,0.0762,0.047625));
#1417=CARTESIAN_POINT('',(0.1397,0.0762,0.047625));
#1418=CARTESIAN_POINT('',(0.1397,-0.003175,0.047625));
#1419=CARTESIAN_POINT('',(0.1397,-0.003175,0.047625));
#1420=CARTESIAN_POINT('',(0.06985,-0.003175,0.047625));
#1421=CARTESIAN_POINT('',(-1.38777878078145E-17,-0.003175,0.047625));
#1422=CARTESIAN_POINT('',(-1.38777878078145E-17,-0.003175,0.047625));
#1423=CARTESIAN_POINT('',(0.06985,0.0740119069814682,0.047625));
#1424=CARTESIAN_POINT('',(0.026942733887814,0.0740119069814682,0.047625));
#1425=CARTESIAN_POINT('',(0.112210751853103,0.0740119069814682,0.047625));
#1426=CARTESIAN_POINT('',(0.026942733887814,-0.003175,0.047625));
#1427=CARTESIAN_POINT('',(0.026942733887814,0.068022221326828,0.047625));
#1428=CARTESIAN_POINT('',(0.06985,0.068022221326828,0.047625));
#1429=CARTESIAN_POINT('',(0.112210751853103,0.068022221326828,0.047625));
#1430=CARTESIAN_POINT('',(0.112210751853103,-0.003175,0.047625));
#1431=CARTESIAN_POINT('',(0.,0.0381,0.1143));
#1432=CARTESIAN_POINT('',(0.,0.0381,0.009525));
#1433=CARTESIAN_POINT('',(0.,0.,0.009525));
#1434=CARTESIAN_POINT('',(-1.38777878078145E-17,-0.003175,0.009525));
#1435=CARTESIAN_POINT('',(0.,0.,0.009525));
#1436=CARTESIAN_POINT('',(-1.38777878078145E-17,0.0762,0.1143));
#1437=CARTESIAN_POINT('',(-1.38777878078145E-17,-0.003175,0.003175));
#1438=CARTESIAN_POINT('',(0.,0.0381,0.1143));
#1439=CARTESIAN_POINT('',(-1.38777878078145E-17,-0.003175,0.003175));
#1440=CARTESIAN_POINT('',(-1.51394048812521E-17,-0.003175,0.05715));
#1441=CARTESIAN_POINT('',(-1.51394048812521E-17,-0.003175,0.05715));
#1442=CARTESIAN_POINT('',(-1.51394048812521E-17,2.16840434497101E-19,0.05715));
#1443=CARTESIAN_POINT('',(-1.51394048812521E-17,2.16840434497101E-19,0.05715));
#1444=CARTESIAN_POINT('',(-1.38777878078145E-17,0.0762,0.1143));
#1445=CARTESIAN_POINT('',(0.06985,0.0762,0.1143));
#1446=CARTESIAN_POINT('',(0.1397,0.0762,0.1143));
#1447=CARTESIAN_POINT('',(0.06985,0.0762,0.1143));
#1448=CARTESIAN_POINT('',(0.1397,0.0762,0.1143));
#1449=CARTESIAN_POINT('',(0.1397,0.0381,0.1143));
#1450=CARTESIAN_POINT('',(0.1397,0.,0.009525));
#1451=CARTESIAN_POINT('',(0.1397,0.,0.009525));
#1452=CARTESIAN_POINT('',(0.1397,0.0381,0.009525));
#1453=CARTESIAN_POINT('',(0.1397,-0.003175,0.009525));
#1454=CARTESIAN_POINT('',(0.1397,-0.003175,0.003175));
#1455=CARTESIAN_POINT('',(0.1397,0.0381,0.1143));
#1456=CARTESIAN_POINT('',(0.1397,-2.16840434497101E-19,0.05715));
#1457=CARTESIAN_POINT('',(0.1397,-2.16840434497101E-19,0.05715));
#1458=CARTESIAN_POINT('',(0.1397,-0.003175,0.05715));
#1459=CARTESIAN_POINT('',(0.1397,-0.003175,0.05715));
#1460=CARTESIAN_POINT('',(0.1397,-0.003175,0.003175));
#1461=CARTESIAN_POINT('',(-0.003175,0.0381,0.003175));
#1462=CARTESIAN_POINT('',(-0.003175,0.0381,0.103193879127502));
#1463=CARTESIAN_POINT('',(-0.003175,0.079375,0.103193879127502));
#1464=CARTESIAN_POINT('',(-0.003175,-0.003175,0.103193879127502));
#1465=CARTESIAN_POINT('',(-0.003175,0.079375,0.003175));
#1466=CARTESIAN_POINT('',(-0.003175,-0.003175,0.003175));
#1467=CARTESIAN_POINT('',(0.06985,-0.003175,0.003175));
#1468=CARTESIAN_POINT('',(0.142875,-0.003175,0.003175));
#1469=CARTESIAN_POINT('',(0.142875,-0.003175,0.103193879127502));
#1470=CARTESIAN_POINT('',(0.250825,-0.00317499999999995,0.103193879127502));
#1471=CARTESIAN_POINT('',(0.06985,-0.003175,0.009525));
#1472=CARTESIAN_POINT('',(0.06985,-0.003175,0.05715));
#1473=CARTESIAN_POINT('',(0.142875,0.0381,0.003175));
#1474=CARTESIAN_POINT('',(0.142875,0.079375,0.003175));
#1475=CARTESIAN_POINT('',(0.142875,0.079375,0.103193879127502));
#1476=CARTESIAN_POINT('',(0.142875,0.0381,0.103193879127502));
#1477=CARTESIAN_POINT('',(0.06985,0.079375,0.003175));
#1478=CARTESIAN_POINT('',(0.250825,0.079375,0.103193879127502));
#1479=CARTESIAN_POINT('',(0.06985,0.,0.009525));
#1480=CARTESIAN_POINT('',(0.06985,0.,0.009525));
#1481=CARTESIAN_POINT('',(0.06985,0.0365125,0.009525));
#1482=CARTESIAN_POINT('',(0.06985,-2.16840434497101E-19,0.05715));
#1483=CARTESIAN_POINT('',(0.06985,-2.16840434497101E-19,0.05715));
#1484=CARTESIAN_POINT('',(0.06985,0.0365125,0.05715));
#1485=CARTESIAN_POINT('',(0.250825,0.0381,0.103193879127502));
#1486=CARTESIAN_POINT('',(0.06985,0.0762,0.103193879127502));
#1487=CARTESIAN_POINT('',(0.1397,0.0762,0.103193879127502));
#1488=CARTESIAN_POINT('',(-1.38777878078145E-17,0.0762,0.103193879127502));
#1489=CARTESIAN_POINT('',(0.1397,0.0381,0.103193879127502));
#1490=CARTESIAN_POINT('',(0.1397,-2.16840434497101E-19,0.103193879127502));
#1491=CARTESIAN_POINT('',(0.06985,-2.16840434497101E-19,0.103193879127502));
#1492=CARTESIAN_POINT('',(-1.38777878078145E-17,9.62964972193618E-35,0.103193879127502));
#1493=CARTESIAN_POINT('',(0.,0.0381,0.103193879127502));
#1494=CARTESIAN_POINT('',(0.06985,-2.16840434497101E-19,0.104775));
#1495=CARTESIAN_POINT('',(0.1397,-2.16840434497101E-19,0.104775));
#1496=CARTESIAN_POINT('',(-1.51394048812521E-17,2.16840434497101E-19,0.104775));
#1497=CARTESIAN_POINT('',(0.1397,0.0381,0.1143));
#1498=CARTESIAN_POINT('',(0.1397,0.0762,0.1143));
#1499=CARTESIAN_POINT('',(0.06985,0.0762,0.1143));
#1500=CARTESIAN_POINT('',(-1.38777878078145E-17,0.0762,0.1143));
#1501=CARTESIAN_POINT('',(0.,0.0381,0.1143));
#1502=CARTESIAN_POINT('',(0.112345159829984,0.00605408392253518,-0.155575));
#1503=CARTESIAN_POINT('',(0.112345159829984,0.00924858228641749,-0.155575));
#1504=CARTESIAN_POINT('',(0.112345159829984,0.00285958555865288,-0.155575));
#1505=CARTESIAN_POINT('',(0.0697111508473396,0.00285958555865288,-0.155575));
#1506=CARTESIAN_POINT('',(0.027077141864695,0.00285958555865288,-0.155575));
#1507=CARTESIAN_POINT('',(0.027077141864695,0.00605408392253518,-0.155575));
#1508=CARTESIAN_POINT('',(0.027077141864695,0.00924858228641749,-0.155575));
#1509=CARTESIAN_POINT('',(0.0697111508473396,0.00924858228641749,-0.155575));
#1510=CARTESIAN_POINT('',(0.112210751853103,0.0710170641541481,-0.155575));
#1511=CARTESIAN_POINT('',(0.112210751853103,0.0740119069814682,-0.155575));
#1512=CARTESIAN_POINT('',(0.112210751853103,0.068022221326828,-0.155575));
#1513=CARTESIAN_POINT('',(0.0695767428704586,0.068022221326828,-0.155575));
#1514=CARTESIAN_POINT('',(0.026942733887814,0.068022221326828,-0.155575));
#1515=CARTESIAN_POINT('',(0.026942733887814,0.0710170641541481,-0.155575));
#1516=CARTESIAN_POINT('',(0.026942733887814,0.0740119069814682,-0.155575));
#1517=CARTESIAN_POINT('',(0.0695767428704586,0.0740119069814682,-0.155575));
#1518=CARTESIAN_POINT('',(0.112345159829984,0.00605408392253518,-0.155575));
#1519=CARTESIAN_POINT('',(0.112345159829984,0.00285958555865288,-0.155575));
#1520=CARTESIAN_POINT('',(0.112345159829984,0.00924858228641749,-0.155575));
#1521=CARTESIAN_POINT('',(0.0697111508473396,0.00285958555865288,-0.155575));
#1522=CARTESIAN_POINT('',(0.027077141864695,0.00285958555865288,-0.155575));
#1523=CARTESIAN_POINT('',(0.027077141864695,0.00605408392253518,-0.155575));
#1524=CARTESIAN_POINT('',(0.027077141864695,0.00924858228641749,-0.155575));
#1525=CARTESIAN_POINT('',(0.0697111508473396,0.00924858228641749,-0.155575));
#1526=CARTESIAN_POINT('',(0.112210751853103,0.0710170641541481,-0.155575));
#1527=CARTESIAN_POINT('',(0.112210751853103,0.068022221326828,-0.155575));
#1528=CARTESIAN_POINT('',(0.112210751853103,0.0740119069814682,-0.155575));
#1529=CARTESIAN_POINT('',(0.0695767428704586,0.068022221326828,-0.155575));
#1530=CARTESIAN_POINT('',(0.026942733887814,0.068022221326828,-0.155575));
#1531=CARTESIAN_POINT('',(0.026942733887814,0.0710170641541481,-0.155575));
#1532=CARTESIAN_POINT('',(0.026942733887814,0.0740119069814682,-0.155575));
#1533=CARTESIAN_POINT('',(0.0695767428704586,0.0740119069814682,-0.155575));
#1534=CARTESIAN_POINT('',(0.0697111508473396,0.00924858228641749,-0.155575));
#1535=CARTESIAN_POINT('',(0.027077141864695,0.00924858228641749,-0.155575));
#1536=CARTESIAN_POINT('',(0.112345159829984,0.00924858228641749,-0.155575));
#1537=CARTESIAN_POINT('',(0.027077141864695,0.00605408392253518,-0.155575));
#1538=CARTESIAN_POINT('',(0.027077141864695,0.00285958555865288,-0.155575));
#1539=CARTESIAN_POINT('',(0.0697111508473396,0.00285958555865288,-0.155575));
#1540=CARTESIAN_POINT('',(0.112345159829984,0.00285958555865288,-0.155575));
#1541=CARTESIAN_POINT('',(0.112345159829984,0.00605408392253518,-0.155575));
#1542=CARTESIAN_POINT('',(0.0695767428704586,0.0740119069814682,-0.155575));
#1543=CARTESIAN_POINT('',(0.026942733887814,0.0740119069814682,-0.155575));
#1544=CARTESIAN_POINT('',(0.112210751853103,0.0740119069814682,-0.155575));
#1545=CARTESIAN_POINT('',(0.026942733887814,0.0710170641541481,-0.155575));
#1546=CARTESIAN_POINT('',(0.026942733887814,0.068022221326828,-0.155575));
#1547=CARTESIAN_POINT('',(0.0695767428704586,0.068022221326828,-0.155575));
#1548=CARTESIAN_POINT('',(0.112210751853103,0.068022221326828,-0.155575));
#1549=CARTESIAN_POINT('',(0.112210751853103,0.0710170641541481,-0.155575));
#1550=MECHANICAL_DESIGN_GEOMETRIC_PRESENTATION_REPRESENTATION('',(#987),
#1551);
#1551=(
GEOMETRIC_REPRESENTATION_CONTEXT(3)
GLOBAL_UNCERTAINTY_ASSIGNED_CONTEXT((#1552))
GLOBAL_UNIT_ASSIGNED_CONTEXT((#1555,#1554,#1553))
REPRESENTATION_CONTEXT('Part 1','TOP_LEVEL_ASSEMBLY_PART')
);
#1552=UNCERTAINTY_MEASURE_WITH_UNIT(LENGTH_MEASURE(1.E-8),#1555,
'DISTANCE_ACCURACY_VALUE','Maximum Tolerance applied to model');
#1553=(
NAMED_UNIT(*)
SI_UNIT($,.STERADIAN.)
SOLID_ANGLE_UNIT()
);
#1554=(
NAMED_UNIT(*)
PLANE_ANGLE_UNIT()
SI_UNIT($,.RADIAN.)
);
#1555=(
LENGTH_UNIT()
NAMED_UNIT(*)
SI_UNIT($,.METRE.)
);
#1556=PRODUCT_DEFINITION_SHAPE('','',#1557);
#1557=PRODUCT_DEFINITION('','',#1559,#1558);
#1558=PRODUCT_DEFINITION_CONTEXT('',#1565,'design');
#1559=PRODUCT_DEFINITION_FORMATION_WITH_SPECIFIED_SOURCE('','',#1561,
 .NOT_KNOWN.);
#1560=PRODUCT_RELATED_PRODUCT_CATEGORY('','',(#1561));
#1561=PRODUCT('Part 1','Part 1','Part 1',(#1563));
#1562=PRODUCT_CATEGORY('','');
#1563=PRODUCT_CONTEXT('',#1565,'mechanical');
#1564=APPLICATION_PROTOCOL_DEFINITION('international standard',
'ap242_managed_model_based_3d_engineering',2020,#1565);
#1565=APPLICATION_CONTEXT('managed model based 3d engineering');
ENDSEC;
END-ISO-10303-21;
